<?xml version="1.0" encoding="utf-8"?>
<!-- Generator: Adobe Illustrator 22.1.0, SVG Export Plug-In . SVG Version: 6.00 Build 0)  -->
<svg version="1.1" xmlns="http://www.w3.org/2000/svg" xmlns:xlink="http://www.w3.org/1999/xlink" x="0px" y="0px"
	 viewBox="0 0 6250 2716.4" style="enable-background:new 0 0 6250 2716.4;" xml:space="preserve">
<style type="text/css">
	.st0{display:none;}
	.st1{display:inline;}
	.st2{fill:#F2E6D4;}
	.st3{display:inline;fill:none;stroke:#FB5822;stroke-width:7.7649;stroke-linecap:round;stroke-linejoin:round;}
	.st4{display:inline;fill:#DC735B;}
	.st5{display:inline;opacity:0.6672;fill:#FFD1BD;enable-background:new    ;}
	.st6{display:inline;fill:#FFFFFF;}
	.st7{display:inline;fill:#FF9088;}
	.st8{display:inline;fill:#46DBC9;}
	.st9{display:inline;fill:none;stroke:#525587;stroke-width:19.4124;stroke-linecap:round;stroke-linejoin:round;}
	.st10{display:inline;fill:#EECB55;}
	.st11{display:inline;fill:#525587;}
	.st12{display:inline;fill:#3C3744;}
	.st13{display:inline;fill:#E49D75;}
	.st14{fill:#FF9088;}
	.st15{fill:#FFFFFF;}
	.st16{fill:none;stroke:#525587;stroke-width:17.9374;stroke-linecap:round;stroke-linejoin:round;stroke-miterlimit:10;}
	.st17{fill:#EECB55;}
	.st18{fill:#46DBC9;}
	.st19{fill:#525587;}
	.st20{fill:#3C3744;}
	.st21{fill:none;stroke:#525587;stroke-width:18.5214;stroke-linecap:round;stroke-linejoin:round;stroke-miterlimit:10;}
	.st22{fill:none;stroke:#FB5822;stroke-width:14.5585;stroke-linecap:round;stroke-linejoin:round;stroke-miterlimit:10;}
	.st23{fill:#FFD1BD;}
	.st24{fill:#FB5D64;}
	.st25{display:inline;fill:#F2E6D4;}
	.st26{display:inline;fill:#FFD1BD;}
	.st27{display:inline;fill:#FB5D64;}
	.st28{display:inline;fill:#D7E0FF;stroke:#525587;stroke-width:7.8425;stroke-miterlimit:10;}
	.st29{display:inline;fill:none;stroke:#FFD1BD;stroke-width:23.5275;stroke-miterlimit:10;}
	.st30{display:inline;fill:none;stroke:#FB5822;stroke-width:11.7469;stroke-linecap:round;stroke-linejoin:round;}
	.st31{display:inline;fill:none;stroke:#525587;stroke-width:14.4733;stroke-linecap:round;stroke-linejoin:round;}
	.st32{display:inline;fill:#7A7A87;}
	.st33{display:inline;fill:none;stroke:#525587;stroke-width:14.9445;stroke-linecap:round;stroke-linejoin:round;}
	.st34{display:inline;fill:none;stroke:#525587;stroke-width:7.8425;stroke-linecap:round;stroke-linejoin:round;}
	.st35{display:inline;fill:#F4F7FF;}
	.st36{fill:none;stroke:#FB5822;stroke-width:11.2279;stroke-linecap:round;stroke-linejoin:round;stroke-miterlimit:10;}
	.st37{fill:none;stroke:#525587;stroke-width:13.8103;stroke-linecap:round;stroke-linejoin:round;stroke-miterlimit:10;}
	.st38{fill:#DB7F29;}
	.st39{fill:#403B44;}
	.st40{fill:#DC735B;}
	.st41{fill:none;stroke:#525587;stroke-width:11.7519;stroke-linecap:round;stroke-linejoin:round;stroke-miterlimit:10;}
	.st42{fill:#FB5822;}
	.st43{fill:none;stroke:#FF9088;stroke-width:13.8103;stroke-linecap:round;stroke-linejoin:round;stroke-miterlimit:10;}
</style>
<g id="Layer_1" xmlns:vectornator="http://vectornator.io" class="st0">
	<g transform="translate(300,300)" class="st1">
		<path class="st2" d="M5264,253.2c272.4,315.3,482.8,648.9,503.3,1002.3c19.7,353.3-151.3,727.1-423.7,977
			c-271.7,249.8-645.4,375.9-965.6,323c-319.6-53.5-587-285.8-926.3-535.6c-338.6-249.8-749.6-517.4-737-771.4
			c12-254.8,447.6-496.9,787-812.9C3841,120.2,4083.1-268.3,4371-314C4658.6-359.8,4992.2-62.1,5264,253.2z"/>
	</g>
	<path class="st3" d="M3311.1,1104.2l192.8-208.3l192.8-208.3l84,271.2l84,271.2l-276.8-62.7L3311.1,1104.2z"/>
	<path class="st3" d="M5815.7,659l-107.9,392.9l354.7-68.7L5815.7,659z"/>
	<path class="st4" d="M3576.6,691.1h903.1V1636h-903.1V691.1z"/>
	<path class="st5" d="M3906.1,583h1757.1v1266.2H3906.1V583z"/>
	<path class="st4" d="M5006.1,914.5c0-124.6,101.1-225.6,225.6-225.6s225.6,101.1,225.6,225.6s-101.1,225.6-225.6,225.6
		S5006.1,1039.2,5006.1,914.5z"/>
	<path class="st3" d="M4610,2028.8c0-127.3,103.2-230.4,230.4-230.4c127.2,0,230.4,103.2,230.4,230.4
		c0,127.3-103.2,230.4-230.4,230.4C4713.2,2259.2,4610,2156,4610,2028.8z"/>
	<path class="st6" d="M5320.7,481.2V656h1.1v186.4l-130.3-139.3h-374.7V481.3L5320.7,481.2L5320.7,481.2L5320.7,481.2z"/>
	<path class="st6" d="M4180.4,779.8v174.7h-1.1V1141l130.3-139.3h374.7V779.8L4180.4,779.8L4180.4,779.8L4180.4,779.8z"/>
	<path class="st6" d="M5561.8,1224.9c0,124.9,54.3,147.6,54.3,170.2c0,22.7-24.7,146.9-31.6,163.2c18.3,25.7,147.6,39,172.2,32.3
		c2-24.3,33-182.6,40-193.2c7-10.7,85.3-73.3,85.3-125.3c0-116.3-7.7-270.8-84.9-270.8C5703.1,1001.4,5561.8,1047.1,5561.8,1224.9z"
		/>
	<path class="st7" d="M5951.7,1596.6c-60.4,1.6-191,24.9-191,24.9c-0.8,63.8,16.7,740,19.3,841.7h373L6285,1696
		c0-54.9-44.5-99.4-99.4-99.4c0,0-160.5,2.3-222.9,0C5959.5,1596.5,5955.7,1596.5,5951.7,1596.6z"/>
	<path class="st6" d="M3991.3,2171.1c21.3-11.7,226.8-163.8,238.1-178.1c11.2-14.2,51.6-95.5,55-100.8c3.3-5.3,25-15.2,27.7-13
		c16.5,14.1-10,62-13.1,69.3c15.4-14.1,112.9-90.3,124.9-86.6c85.9,26.9,53.7,141.6-0.2,169.6c-14.8,7.7-95.7,38.5-103.4,45.3
		c-7.8,6.8-347.9,290-355.6,295.5C3960.2,2352.7,3969.9,2182.8,3991.3,2171.1z"/>
	<path class="st6" d="M5223,1773.6c-14.7,21.7-51.6,75.7-66.3,96.8c-157.6-207.2-320.6-327.2-363.4-531.8
		c-41.5-26.3-39.1,67.7-7.9,138.3c-48.6,31.1-94.7,62.3-80.5,85.3c54.2,88.2,70.4,60.4,90.7,62.3s182.3,334,229.1,386.3
		c34.4,38.5,61.2,83.6,167.6,129.4c11.4-97.4,83.2-327.8,97.8-345.3C5276.6,1785.4,5237.6,1752.1,5223,1773.6z"/>
	<path class="st8" d="M5275.1,1818.3c-48.8-37.2-81.8-66.5-82.6-80.3c-2.1-32.5,192.8-309.6,325.4-221.8
		C5574.3,1557.2,5371.7,1890.3,5275.1,1818.3z"/>
	<path class="st9" d="M5382.3,1503.4c42.8-21.2,86.6-26.5,125.1-0.9"/>
	<path class="st9" d="M5264.7,1804.5c-49.5-36.2-81.8-66.5-82.6-80.3c-0.9-14.1,35-73.8,86.8-130.1"/>
	<path class="st8" d="M5641.6,1494.4c-390,3.6-467.8,673.3-485.9,968.8H5894c93.2-289.9,162.1-908.3-191.2-964.2
		C5681.6,1495.8,5661.1,1494.3,5641.6,1494.4z"/>
	<path class="st7" d="M3070.4,1577c-54.9,0-99.4,44.5-99.4,99.4c0,0,71.5,578.9,97.5,789.9h537.3c-0.1-34.1-1.1-752-6.6-889.2
		C3467.1,1577,3070.4,1577,3070.4,1577z"/>
	<path class="st8" d="M3735.4,1553.2c-357.6,0-428.2,623.6-417.8,913H3973C4031.3,2179.6,4041,1553.2,3735.4,1553.2z"/>
	<path class="st9" d="M3980,2007.4c8.9,169-9.1,345.1-34.4,457.6"/>
	<path class="st9" d="M3802.8,1553.1c63.7,33.9,107,104.6,135.1,194"/>
	<path class="st9" d="M3517.5,1613.2c28.3-28,59.7-50.1,94.8-65"/>
	<path class="st9" d="M3984.4,2153.3c24-12.7,214.2-153.2,231.9-171.8c17.7-18.7,47.1-95.1,59.9-106.4s21.4-17.5,29-9.1
		c7.7,8.4-5.8,50.7-22.4,73c31.4-32.5,105.2-84.2,131.3-93.3"/>
	<path class="st9" d="M4104.1,2235.3c-67,57.7-127.6,110.3-138.2,119.8"/>
	<path class="st9" d="M4415.1,2012.5c-29.3,14.9-87.1,36.7-113.8,55.8c-7.7,5.4-36.3,29.4-73.8,61.3"/>
	<path class="st9" d="M4324.2,1944.9c9.1-7.6,37.3-27.8,65.5-46c26.2-16.9,52.2-32.1,62.7-34"/>
	<path class="st9" d="M4346.8,1971.3c9.1-7.6,37.3-27.8,65.5-46c26.2-16.9,52.2-32.1,62.7-34"/>
	<path class="st9" d="M4357.7,2007c8.1-6.8,33.2-25,58.2-41.5c23.2-15.2,46.4-29,55.7-30.7"/>
	<path class="st6" d="M5796.7,1395.5c-7.1,20.3-39.1,170.5-41.5,194.1c-30.1,10.9-153.9-7.1-169.5-30.8
		c15.2-44.6,31.4-133.3,30.1-170.5"/>
	<path class="st9" d="M5576.5,1545.4c15.2-44.6,31.4-133.3,30.1-170.5"/>
	<path class="st9" d="M5787.5,1382.1c-7.1,20.3-39.1,170.5-41.5,194.1c-14.7,5.2-51.3,3.7-87-1.9"/>
	<path class="st9" d="M5565.2,1134.3c9.6-28.5,23.8-56.5,38.3-77.6"/>
	<path class="st9" d="M5721,1411.2c-16.3,3.3-32.9,3.3-49.2-0.1c-76.3-16.3-124.8-101.3-120.5-200.4"/>
	<path class="st9" d="M5762,1502.1c272.9,131.3,202.7,703.6,113.9,962.5"/>
	<path class="st9" d="M5206.7,2003c59.9-249.6,172.2-492.5,383.8-525.1"/>
	<path class="st9" d="M5142.8,2465c3.3-59.5,9.4-137.4,20.7-223.3"/>
	<path class="st9" d="M5842.5,2211c5,72.8,10.2,139.9,14.4,160c-21.8,26.5-72.4,93.6-72.4,93.6"/>
	<path class="st9" d="M5828.8,1988.9c0.6,9.1,2.4,41.2,5,83.1"/>
	<path class="st9" d="M5209.3,1760.8c-7.3,10.7-65.1,96.4-65.1,96.4s-258.3-305.6-275.7-329.5c-52.3-71.5-77.3-158.9-80.2-178.1
		c-2.7-18.1-11.4-39.5-26.7-29.5c-24,18.1-8.3,110.4,10.1,141.9"/>
	<path class="st9" d="M4741.9,1472.7c0.6,15.9,15.2,64.9,38.9,87.1"/>
	<path class="st9" d="M4713.7,1500.9c2.2,15.8,21.7,63.1,47.3,82.8"/>
	<path class="st9" d="M4686,1529.9c3.1,15.7,25.3,61.6,52.2,79.7"/>
	<path class="st9" d="M4948.3,1903.2c-53.5-94.9-98.8-200.8-154.4-278.2"/>
	<path class="st9" d="M5181.1,2125.5c-49.5-11.9-91.1-38.9-127.4-75.2"/>
	<path class="st9" d="M5594.1,1153.5c4-18.7,18.1-31.4,31.5-28.7c13.4,2.9,21.2,20.3,17.3,39"/>
	<path class="st9" d="M5723.3,1183.5c4-18.7,18.1-31.4,31.5-28.7c13.4,2.9,21.2,20.3,17.3,39"/>
	<path class="st9" d="M5666.1,1191.6c-8,11.1-29,35.9-38.9,40.5"/>
	<path class="st9" d="M5671.6,1270.3c11.4,2.3,36.5,4,61.9-0.9c5.2,18.5,0,59-47.2,65.7"/>
	<path class="st9" d="M3284.6,1561.4h300.7"/>
	<path class="st9" d="M3056.3,2464.7l-99.3-803.9c0-54.9,44.5-99.4,99.4-99.4h37.4"/>
	<path class="st9" d="M6152.2,1584.4h-208"/>
	<path class="st9" d="M6131,2465l117.9-680.1"/>
	<path class="st9" d="M4159.2,1052l-0.1,65.1l134.6-137.4h370.9V757.5h-53.2"/>
	<path class="st9" d="M4494.5,757.5h-335.1v184.8"/>
	<path class="st9" d="M4218,824.8h366.7"/>
	<path class="st9" d="M4218,911.5h128.1"/>
	<path class="st9" d="M5228.8,460.7h69.8v222.1l0.2,137.4l-134.6-137.4h-370.9v-29.9"/>
	<path class="st9" d="M4793.4,567.1V460.7H5073"/>
	<path class="st9" d="M5240,528.1h-366.7"/>
	<path class="st9" d="M5003.6,614.8h-128"/>
	<path class="st6" d="M3224.5,1942.2l0.3,1c-13,29.2-129.8,359.8-124.6,387.1c5.1,27.6,32.5,76.2,52.6,87.4
		c9.2,5.1,101.3,24.9,211.2,48.5h662.7c-13.5-34.5-70.1-62.9-122.5-63.1c-17.8-0.6-45.5,0.6-65.7,23.7
		c-199.6-92.2-423.3-144.8-488.3-161.7l-7.1-18.4c21.7-41.3,86.7-161,95.8-179.7c-34.6-17.5-212.1-123.5-213.8-124.4l-0.1-0.3
		l-0.1,0.2C3225.1,1942.5,3224.5,1942.2,3224.5,1942.2z"/>
	<path class="st9" d="M3124.3,2190.5c-19.7,62.1-34.2,113.2-32.3,123.3c5.1,27.6,32.5,76.2,52.6,87.4c11.1,6.2,141.5,34,280.5,64.1"
		/>
	<path class="st9" d="M3216.1,1925.6c-5.1,11.1-30.1,80.5-56.4,157.7"/>
	<path class="st9" d="M3432.6,2049.3c-13.4,22-101.1,187.3-103.3,194.2c41.4,12.1,287.3,66.2,502.7,165.6
		c20.2-23.1,48-24.2,65.7-23.7c60.4,0.1,125.5,31.4,125.5,79.4"/>
	<path class="st8" d="M3530,1645.8c149,87.1-7.1,418.6-47.4,429.2c-79.3,5.4-261.7-108.9-279.3-155.2
		C3185.6,1873.4,3382.9,1560,3530,1645.8z"/>
	<path class="st9" d="M3574.8,1838c-22.2,105.9-79.4,209-101.6,214.8c-79.3,5.4-261.7-108.9-279.3-155.2c-6.4-17,16-69.8,54.2-125.8
		"/>
	<path class="st9" d="M3340.2,1666.8c57.2-49.2,122.7-77,180.5-43.2c23,13.4,38.7,32.8,48.7,55.7"/>
	<path class="st6" d="M3617.6,1621.2c21.7-59,18.3-257.3,16.2-276.8c-2.6-23.7-20.4-194.4,22.4-230.5
		c42.9-36.1,108.6-76.5,147.5-73.7c38.9,2.8,154.4,119,154.4,259.8s-128,208.1-158,209c-4.1,31.3-3.8,114.9-3.8,145.2
		C3783.9,1666.1,3649.2,1662.1,3617.6,1621.2z"/>
	<path class="st10" d="M3639,1220.9c-20-1.2-35.6,16.9-52.4,34.2c-15.1-111.2,37.3-306.6,112.4-319.8c12.9,0.5,14.5,17.5,10.8,32.6
		c47.1-43,135.7-66.9,173.2-67.2c48.7,0,65.9,38.4,65.9,51.6c0,33.4-21.9,83.2-30,96.2c12.9-6.8,23.2-9.3,33.2-9.3
		c25.1,0,31.1,38.9,31.1,50.4c0,40.4-42.8,81.5-64.1,81.5c-9.9,0-37.4-15.5-45.8-27.1c3,8.6,6.2,11,6.3,24.2
		c0.1,10.9-15.8,16.9-25.2,16.9c-25,0-74.5-48.7-119.7-48.7c-15.1,0-34.1,21.7-34.1,33.8s6.4,69.7,2.6,71.6
		c-11.7,9.2-17.1-18.2-63.5-21.1"/>
	<path class="st9" d="M3922.9,1370.3c-29,71.5-88.1,120.5-156.2,120.5c-34.6,0-66.7-12.5-93.9-34.2"/>
	<path class="st9" d="M3916.3,1157c17.2,34.1,25.5,70.6,25.5,113.9c0,10.2-0.6,20.3-1.7,30.3"/>
	<path class="st9" d="M3780.2,1636.4c-1.9-34.9-0.9-125.8,3.9-145.6"/>
	<path class="st9" d="M3617.4,1510.7c-2.7,35.6-7.2,69-14.5,91.9c13.9,16.2,51.1,28.7,89.7,34.5"/>
	<path class="st9" d="M3617.3,1328.7c2.1,10.2,4.3,57.4,3.3,111.7"/>
	<path class="st11" d="M3741.7,1227.7c0-10.5,4.6-19,10.1-19c5.6,0,10.1,8.5,10.1,19c0,10.5-4.6,19-10.1,19
		C3746.3,1246.8,3741.7,1238.3,3741.7,1227.7z"/>
	<path class="st11" d="M3885.7,1235.4c0-10.5,4.6-19,10.1-19c5.6,0,10.1,8.5,10.1,19s-4.6,19-10.1,19
		C3890.1,1254.4,3885.7,1245.9,3885.7,1235.4z"/>
	<path class="st9" d="M3845.1,1278c2.3,16.8,16.1,45,31.2,55.8"/>
	<path class="st9" d="M3836.8,1374.5c-10.4-1.4-43.5-19.2-50.2-31.9c-12.3,5.9-18.4,47.8,6.7,54.2"/>
	<path class="st9" d="M3916.5,1156.9c-3,1-5.7,1.6-8.1,1.6c-20,0-53.7-33.6-53.7-33.6c7.6,18.5,12.1,23.8,12.1,31.4
		c0,7.5-9.4,15.8-23.4,16.2c-34.1,1-71.6-48.5-119.5-48.5c-12.4,0-36.8,17.1-36.8,37.7c0,13.9,4.3,53.9,4.3,63.4
		c0,3.8-2.2,6.4-6.3,8.1"/>
	<path class="st9" d="M3845.9,891.6c7.7-1,15.3-1.6,22.9-1.6c37,0,66.9,24.9,66.9,53s-20.8,83.2-34.8,96.4
		c18.5-8.3,23.8-11.3,36.7-11.3c27.1,0,32.1,28.7,32.1,50.2c0,37.8-31.8,71-53.1,78.6"/>
	<path class="st9" d="M3614.5,1001.2c24.4-51.2,52.9-78.3,66.1-78.3c25.5,0,17.2,26.9,16.2,35.5c9.3-9.5,45.9-34.2,89.9-51.1"/>
	<path class="st9" d="M3573.1,1183.9c1.8-51.5,10.3-96.1,22.1-133"/>
	<path class="st6" d="M3650.6,1334.8c-3.2,0.5-6.4,0.8-9.7,0.8c-33.6,0-61-27.3-61-61c0-33.6,27.3-61,61-61
		c23.4,0,43.6,13.2,54,32.5"/>
	<path class="st9" d="M3643.7,1328.9c-3.2,0.5-6.4,0.8-9.7,0.8c-33.6,0-61-27.3-61-61c0-33.6,27.3-61,61-61
		c23.4,0,43.6,13.2,54,32.5"/>
	<path class="st6" d="M6077.8,1967.2c-44.6,22.9-130.3,36.3-238.5,40.1c3,63.6,17.5,264.2,25.3,374.2
		c-16.9,24.5-41.5,56.7-61.1,81.8H5988c28.9-46.5,68.8-113.2,74.7-129.1C6071.8,2309.7,6074.3,2073.2,6077.8,1967.2z"/>
	<path class="st9" d="M6068.8,1946.8c-0.9,29.1-9,359.5-16,379.9c-7,20.5-63.4,114.2-81.5,138.4"/>
	<path class="st8" d="M5881.6,1579.6c149.8-32.8,252.5,331.3,230.6,361.8c-21.9,30.6-291.8,75-315.9,53.1
		C5772.2,1972.7,5756.2,1607,5881.6,1579.6z"/>
	<path class="st9" d="M5919,1979.5c-65.1,9.6-125.1,13-136,3.3c-14.1-12.9-25.5-144-7.1-255.8"/>
	<path class="st9" d="M5892.8,1566c136.2,8.7,226.8,334.8,206.1,363.8c-6.1,8.4-30.8,17.9-64.1,26.8"/>
	<path class="st12" d="M3071.5,2481.3"/>
	<path class="st13" d="M5913.4,1252.1c38.4-38.1,59.2-121,59.2-166.2c0-93.2-54.7-131.4-65.1-131.4c-10.3,0-21,21.5-19.3,36.6
		c-9.2-12.9-90.5-92.2-236.8-92.2c-40.5,0-69.7,19.6-69.7,51.9c0,14.8,6.8,37.6,18.6,45.5c-12,0.9-29,9.5-29,33.3
		c0,27.3,36.5,40.1,51,40.1c14.5,0,36-15.1,46.4-29.2c3.2,15.5-6.6,41,27.4,41.2c14.3,0.1,74.6-30.4,85.9-40.6
		c-11.4,19.7-27.2,28.8-27.2,51c0,20.9,10.2,35.4,26,35.4s61.3-21.4,69.7-31.1c1.8,14.1-14,112.8-9.2,139.8
		c15.8,1.2,35.3-18.9,35.5-2.4"/>
	<path class="st9" d="M5739,1048.6c14.8-7.7,28-15.4,32.8-19.6c-11.4,19.7-27.2,28.7-27.2,51c0,20.9,10.2,35.4,26,35.4
		s61.3-21.4,69.7-31.1c1.8,14.1-14,112.8-9.2,139.8c15.8,1.2,35.3-18.9,35.5-2.4"/>
	<path class="st9" d="M5684.3,889.1c-13.7-1.6-28.2-2.3-43.3-2.3c-40.5,0-69.7,19.6-69.7,51.9c0,14.7,6.8,37.6,18.6,45.4
		c-12,0.9-29,9.5-29,33.3c0,27.3,36.5,40.1,51,40.1s36-15.1,46.4-29.2c3,14.2-5,36.8,19.7,40.6"/>
	<path class="st9" d="M5957,1120.9c3.4-17.5,5.2-34,5.2-47.2c0-93.2-54.7-131.4-65.1-131.4c-10.2,0-21,21.5-19.3,36.6
		c-6.2-8.6-45-47.3-114-71.7"/>
	<path class="st9" d="M5902.9,1240c13.3-13.1,24.5-31.6,33.4-52.1"/>
	<path class="st9" d="M5856.6,1224.4c4.3-1.6,8.9-2.4,13.7-2.4c22,0,39.8,17.9,39.8,39.8c0,22-17.9,39.8-39.8,39.8
		c-17.5,0-32.4-11.3-37.7-27"/>
	<path class="st9" d="M2992.5,2465.1h3299.7"/>
</g>
<g id="Layer_2" class="st0">
	<g transform="matrix(1.02109,0,0,1.02109,1033.43,682.717)" class="st1">
		<path class="st2" d="M4779.5,531.5c26.7,347.5,129.3,668.7,19.6,876c-109.7,206.9-432.2,299.9-806.8,400.9
			c-375.4,101.4-803,209.8-1128.4,58c-325.4-152.7-547.7-566.1-473.9-901c73.8-335.4,444.3-591.1,715-873.9
			c270.3-282.8,441.3-591.5,715.4-705.4c274.5-113.5,652.8-31.7,817.6,196.5C4801.6-189.7,4752.8,184,4779.5,531.5"/>
	</g>
	<g transform="matrix(1.02109,0,0,1.02109,1001.49,283.631)" class="st1">
		<path class="st14" d="M4720.4,285.6c5-17.9,7.5-36.7,7.5-56.3c0-115.5-93.4-209-209-209c-115.1,0.4-208.6,93.9-208.6,209
			c0,19.6,2.9,38.4,7.5,56.3H4720.4z"/>
	</g>
	<g transform="matrix(1.02109,0,0,1.02109,619.159,634.838)" class="st1">
		<path class="st15" d="M4012.6,1053.2c0,27.1-23.8,123.5-129.7,123.5c-96.4,0-341.2-415.1-349.2-430.9
			c-25.4-2.5-69.7-35.5-82.6-80.1c-2.1-6.7,27.1-46.3,58.8-36.7c7.5,2.1-24.6-37.5-28.8-44.6c-10-15.9-4.2-37.1,0.8-37.1
			c5,0,68.4,86.3,73.4,86.8c4.6,0.4,42.1,17.5,43.8,20.9c2.1,3.3-0.4,55.5,7.1,65.1c7.1,9.6,255.3,274.1,255.3,274.1
			c2.1-25.4,27.5-95.1,31.7-102.2C3897.9,885.1,4012.6,973.1,4012.6,1053.2"/>
	</g>
	<g transform="matrix(1.02109,0,0,1.02109,435.005,732.846)" class="st1">
		<path class="st16" d="M3671.7,547.1c-5.4-7.1-8.8-29.2,8.3-29.6c58,0,88,17.9,88,26.7c0,8.8,0,54.2,4.6,62.6
			c1.7,2.5,26.3,29.6,59.2,65.9c15,17.1,40,43.4,40,43.4c67.6,73.4,146.4,157.7,153.5,165.6c2.5-15.4,19.6-71.3,27.9-88.9"/>
	</g>
	<g transform="matrix(-0.563687,-0.8514,-0.8514,0.563687,502.468,650.371)" class="st1">
		<path class="st16" d="M-2951.1-2633.4c148.5,10,327.9,0.4,350.8,0"/>
	</g>
	<g transform="matrix(1.02109,0,0,1.02109,607.026,807.635)" class="st1">
		<path class="st16" d="M3989.9,922.4c-5.8,15.4-33,68-116,68c-15.4,0-35-11.3-56.7-30.5"/>
	</g>
	<g transform="matrix(1.02109,0,0,1.02109,639.924,530.18)" class="st1">
		<path class="st17" d="M4050.8,574.2c-6.3-34.6-32.1-106.4-32.1-168.9c0-94.3,58-147.7,167.7-147.7c77.2,0,107.6,50.5,119.3,75.5
			c9.6,20.9,3.8,43.8,15,65.5c43.4,86.3,79.3,77.6,142.7,184.4c15.4,25.9,24.2,116.4,19.2,145.2c-27.1,1.3-63.4,13.8-63.4,13.8
			c-14.6,15.4-21.3,35.9-20.4,51.7c-12.5-10.4-78.8-64.2-155.6-64.2c-20.4,0-118.5,17.9-144.3,37.1c-4.6-6.3-25.4-17.5-33.4-17.5
			c-14.6,1.7-26.3,2.9-37.5,7.1c-12.9-43.8,24.6-102.2,24.6-170.6C4052,582.5,4051.6,578.8,4050.8,574.2"/>
	</g>
	<g transform="matrix(1.02109,0,0,1.02109,646.448,745.953)" class="st1">
		<path class="st18" d="M4063.1,541.1c-158.5,0-212.3,216.1-212.3,237.8c0,21.7,121.8,97.6,138.9,97.6
			c17.1,0,119.3-251.5,119.3-267.8C4108.6,591.9,4094.4,541.1,4063.1,541.1"/>
	</g>
	<g transform="matrix(1.02109,0,0,1.02109,607.025,729.352)" class="st1">
		<path class="st16" d="M3989.9,570.4c-86.3,60.1-117.6,190.6-117.6,207.7c0,21.7,121.8,97.6,138.9,97.6
			c17.1,0,119.3-251.5,119.3-267.8c0-16.3-14.2-67.6-45.5-67.6"/>
	</g>
	<g transform="matrix(1.02109,0,0,1.02109,701.745,952.011)" class="st1">
		<path class="st18" d="M4165.2,320.1c386.7-25.4,332.5,800.1,302.8,832.6c-29.6,32.5-364.6,130.6-404.6,109.3
			C4023.4,1241.1,3670.5,353,4165.2,320.1"/>
	</g>
	<g transform="matrix(1.02109,0,0,1.02109,721.528,579.855)" class="st1">
		<path class="st15" d="M4202,511.6c0,0-6.3,38.4-6.7,50.5c-1.7,20,7.1,142.7,10,163.9c-12.1,13.3-99.3,25.9-109.3,18.4
			c0-16.7-8.3-103.9-11.7-116c-65.5-8.3-116.8-87.2-116.8-182.7c0-20,2.1-39.2,6.3-57.1c19.6-6.3,48.4-37.1,52.6-48.8l-4.6-11.3
			c18.4,59.7,130.6,114.7,171.9,119.3l-4.6,7.1c5.8-11.7,16.3-19.6,27.9-19.6c18.4,0,33,18.4,33,40.9c0,22.5-14.6,40.9-33,40.9
			c-8.8,0-17.1-4.2-22.9-11.3"/>
	</g>
	<g transform="matrix(1.02109,0,0,1.02109,651.469,510.148)" class="st1">
		<path class="st16" d="M4072.5,644.2c-31.3-33.4-51.7-86.8-51.7-147.3c0-20,2.1-39.2,6.3-57.1"/>
	</g>
	<g transform="matrix(1.02109,0,0,1.02109,703.994,595.144)" class="st1">
		<path class="st16" d="M4169.7,565.7c-20.4,20-45.5,31.7-71.7,31.7c-11.7,0-22.9-2.1-33.4-6.3"/>
	</g>
	<g transform="matrix(1.02109,0,0,1.02109,711.531,549.016)" class="st1">
		<path class="st16" d="M4183.5,468.7c5.8-11.7,16.3-19.6,27.9-19.6c18.4,0,33,18.4,33,40.9s-14.6,40.9-33,40.9
			c-8.8,0-17.1-4.2-22.9-11.3"/>
	</g>
	<g transform="matrix(0.940742,0.397027,0.397027,-0.940742,682.774,510.543)" class="st1">
		<path class="st16" d="M3972.6,1179.4c42.5-7.1,85.5-5.8,106,0"/>
	</g>
	<g transform="matrix(0.574363,0.844235,0.844235,-0.574363,661.366,488.05)" class="st1">
		<path class="st16" d="M2618.9,3135.3c15.4-4.6,34.2-4.2,54.2,0"/>
	</g>
	<g transform="matrix(-0.750334,0.692549,0.692549,0.750334,643.75,514.18)" class="st1">
		<path class="st16" d="M-2740.9,3056.8c10.8,5.4,53,8.8,71.7,0"/>
	</g>
	<g transform="matrix(1.02109,0,0,1.02109,736.871,612.409)" class="st1">
		<path class="st16" d="M4230.5,337.8c34.6,49.6,68.4,58.8,121,147.7c15.4,25.9,24.6,115.5,19.6,143.9"/>
	</g>
	<g transform="matrix(1.02109,0,0,1.02109,680.031,486.134)" class="st1">
		<path class="st16" d="M4125.3,283.4c1.7,0,3.3,0,5,0c77.2,0,107.6,50.5,119.3,75.5c5.4,11.7,6.3,24.2,7.5,36.3"/>
	</g>
	<g transform="matrix(1.02109,0,0,1.02109,625.758,452.201)" class="st1">
		<path class="st16" d="M4024.7,815.5c-12.9-43.8,24.6-102.2,24.6-170.6c0-27.1-33.4-109.7-33.4-180.6c0-64.2,27.1-109.3,78.8-131.8
			"/>
	</g>
	<g transform="matrix(-0.0381864,-1.02038,-1.02038,0.0381864,726.461,583.037)" class="st1">
		<path class="st16" d="M-769.1-4151.6c32.1,0.8,62.2,0.8,71.3,0"/>
	</g>
	<g transform="matrix(1.02109,0,0,1.02109,699.359,610.931)" class="st1">
		<path class="st16" d="M4161.1,694.8c22.9-3.8,44.6-10,50.5-16.3c-1.3-7.5-2.9-27.9-4.6-52.1"/>
	</g>
	<g transform="matrix(0.102636,1.01592,1.01592,-0.102636,696.702,611.204)" class="st1">
		<path class="st16" d="M989.4,4014.2c12.5,2.1,99.7,1.7,116.4,0"/>
	</g>
	<g transform="matrix(0.88222,-0.514113,-0.514113,-0.88222,639.695,655.395)" class="st1">
		<path class="st16" d="M3132.1-2612.4c46.7,16.7,98.9,18.8,156.4,0"/>
	</g>
	<g transform="matrix(0.0786088,-1.01806,-1.01806,-0.0786088,650.847,727.204)" class="st1">
		<path class="st16" d="M-645.4-4002.8c88.9,15.4,176.9,18.8,251.1,0"/>
	</g>
	<g transform="matrix(1.02109,0,0,1.02109,809.465,915.483)" class="st1">
		<path class="st16" d="M4364.6,1036.7c-3.8,75.1-12.1,127.2-19.2,134.7c-29.6,32.5-364.6,130.6-404.6,109.3
			c-16.7-8.8-88.4-169.8-129.7-356.2"/>
	</g>
	<g transform="matrix(0.154218,1.00938,1.00938,-0.154218,861.659,739.612)" class="st1">
		<path class="st16" d="M1373.9,4099.6c116,21.3,251.1,15,364.2,0"/>
	</g>
	<g transform="matrix(0.911256,0.460693,0.460693,-0.911256,722.471,607.968)" class="st1">
		<path class="st16" d="M4025,1314.3c42.1,12.9,84.3,11.7,125.1,0"/>
	</g>
	<g transform="matrix(1.02109,0,0,1.02109,670.492,527.71)" class="st1">
		<path class="st19" d="M4107.4,472.2c0,10-3.8,18.4-8.8,18.4s-8.8-8.3-8.8-18.4s3.8-18.4,8.8-18.4
			C4103.6,454.3,4107.4,462.2,4107.4,472.2"/>
	</g>
	<g transform="matrix(-0.363293,0.954276,0.954276,0.363293,658.139,550.816)" class="st1">
		<path class="st16" d="M-1011.8,3972.9c7.9,2.1,41.7,7.9,58.8,0"/>
	</g>
	<g transform="matrix(0.857312,-0.554654,-0.554654,-0.857312,665.964,571.813)" class="st1">
		<path class="st16" d="M3138-2680.7c4.2-3.8,27.5-10,40.5,0"/>
	</g>
	<g transform="matrix(1.02109,0,0,1.02109,849.741,918.124)" class="st1">
		<path class="st15" d="M4439.3,671.6c0,0,90.1,259,90.1,287.8c0,29.2-269.5,224-269.5,224l-137.7,11.7l239-245.3l-89.7-223.2
			L4439.3,671.6z"/>
	</g>
	<g transform="matrix(1.02109,0,0,1.02109,784.462,911.287)" class="st1">
		<path class="st16" d="M4318.7,716.3c5,12.9,89.7,223.2,89.7,223.2l-235.3,242.8"/>
	</g>
	<g transform="matrix(1.02109,0,0,1.02109,868.687,845.596)" class="st1">
		<path class="st16" d="M4474.3,944.8c11.3,37.5,19.6,65.5,19.6,68.8c0,11.7-43.4,47.1-43.4,47.1"/>
	</g>
	<g transform="matrix(0.309018,0.973208,0.973208,-0.309018,864.303,732.303)" class="st1">
		<path class="st16" d="M2126.8,3949.7c0,0,46.7,0,103.9,0"/>
	</g>
	<g transform="matrix(1.02109,0,0,1.02109,762.558,741.922)" class="st1">
		<path class="st18" d="M4278.2,543.6c158.9-45.1,288.2,232.4,273.6,270.3c-14.6,38-199,99.7-230.3,83.8
			C4289.9,881.9,4174.3,572.8,4278.2,543.6"/>
	</g>
	<g transform="matrix(1.02109,0,0,1.02109,784.462,718.156)" class="st1">
		<path class="st16" d="M4318.7,905.2c-16.3,2.5-29.2,2.5-35.5-0.8c-9.6-5-27.5-38-44.2-81.8"/>
	</g>
	<g transform="matrix(1.02109,0,0,1.02109,851.576,739.563)" class="st1">
		<path class="st16" d="M4442.9,761.1c5.4,17.9,7.1,31.7,4.6,38.4c-7.5,20-62.6,46.7-117.2,65.1"/>
	</g>
	<g transform="matrix(1.02109,0,0,1.02109,742.458,614.214)" class="st1">
		<path class="st16" d="M4240.8,772.2c-6.7-59.2,1.3-109.3,40-120.6c88-25,166.4,48.8,216.9,126"/>
	</g>
	<g transform="matrix(1.02109,0,0,1.02109,598.567,1040.1)" class="st1">
		<path class="st20" d="M3974.5,974.9c159.8,0,745.9,294.9,745.9,313.7c0,18.4,3.3,132.2-17.1,132.2c-622,0-900.6-119.7-900.6-322.5
			C3802.6,1017.5,3886,974.9,3974.5,974.9"/>
	</g>
	<g transform="matrix(1.02109,0,0,1.02109,873.67,1047.51)" class="st1">
		<path class="st15" d="M4483.5,1286.2c-12.5,0-19.6,114.7-12.1,127.6c21.3,8.3,106,20.9,118.9,20.9c12.5,0,86.3-12.5,86.3-84.7
			C4676.7,1301.6,4602.4,1286.2,4483.5,1286.2"/>
	</g>
	<g transform="matrix(1.02109,0,0,1.02109,660.576,1016.68)" class="st1">
		<path class="st16" d="M4089.1,1030.7c231.9,84.7,553.6,250.3,553.6,264.1c0,18.4,3.3,132.2-17.1,132.2
			c-622,0-900.6-119.7-900.6-322.5c0-80.9,83.4-123.5,171.9-123.5c12.1,0,26.3,1.7,42.5,4.6"/>
	</g>
	<g transform="matrix(-0.315611,0.97109,0.97109,0.315611,870.784,998.527)" class="st1">
		<path class="st16" d="M-129,4658.1c1.3-4.2,15.9-3.3,34.6,0"/>
	</g>
	<g transform="matrix(1.02109,0,0,1.02109,863.936,1030.73)" class="st1">
		<path class="st16" d="M4465.8,1318.8c-5,35-6.3,86.3-1.3,94.7c21.3,8.3,106,20.9,118.9,20.9c12.5,0,86.3-12.5,86.3-84.7
			c0-38-45.9-55.5-123.5-61.3"/>
	</g>
	<g transform="matrix(1.02109,0,0,1.02109,431.626,590.542)" class="st1">
		<path class="st16" d="M3665.4,586.9c-6.3-7.9-10.4-13.8-11.7-16.7c-4.6-10.8-28.8,11.7-5.8,45.5"/>
	</g>
	<g transform="matrix(-0.687885,-0.754612,-0.754612,0.687885,448.193,596.562)" class="st1">
		<path class="st16" d="M-2987.3-2303.5c7.1,1.3,36.3,0.8,64.2,0"/>
	</g>
	<g transform="matrix(0.389832,0.943746,0.943746,-0.389832,438.777,621.246)" class="st1">
		<path class="st16" d="M1968.8,3128.3c-0.8-26.7,56.7-10.8,79.3,0"/>
	</g>
	<g transform="matrix(0.525207,0.875661,0.875661,-0.525207,429.297,624.784)" class="st1">
		<path class="st16" d="M2419.8,2777.3c9.2-23.4,66.3-7.5,77.6,0"/>
	</g>
	<g transform="matrix(1.02109,0,0,1.02109,894.968,1040.1)" class="st1">
		<path class="st20" d="M4523,860.7c84.7,0,133.1,84.7,133.1,134.7c0,287-825.5,425.5-845.1,425.5s-42.5-109.3-42.5-117.6
			C3768,1294.9,4345.7,860.7,4523,860.7"/>
	</g>
	<g transform="matrix(0.856701,-0.555598,-0.555598,-0.856701,708.699,976.239)" class="st1">
		<path class="st16" d="M2764.6-3257.7c117.2,5,267.8,7.5,399.6,0"/>
	</g>
	<g transform="matrix(1.02109,0,0,1.02109,807.048,1016.12)" class="st1">
		<path class="st16" d="M4360.5,1304.7c-224,82.6-469.7,123.1-480.1,123.1c-19.6,0-42.5-109.3-42.5-117.6c0-1.7,27.1-23.4,70.9-56.3
			"/>
	</g>
	<g transform="matrix(1.02109,0,0,1.02109,830.039,929.248)" class="st1">
		<path class="st16" d="M4402.7,1007.3c68.4-33.4,127.6-55.1,166.9-55.1c84.7,0,133.1,84.7,133.1,134.7c0,70.1-49.2,131-123.5,183.5
			"/>
	</g>
	<g transform="matrix(1.02109,0,0,1.02109,616.279,1062.69)" class="st1">
		<path class="st15" d="M4007.4,1287.1c-17.1,0-196.1,30.5-196.1,85.9c0,63.8,38.4,89.7,60.1,89.7s153.5-29.2,165.6-49.2
			C4049.1,1393,4007.4,1287.1,4007.4,1287.1"/>
	</g>
	<g transform="matrix(1.02109,0,0,1.02109,599.49,1002.55)" class="st1">
		<path class="st16" d="M3976.1,1482.4c29.6-8.8,55.5-18.8,60.5-27.1c12.1-20-29.6-126.4-29.6-126.4c-17.1,0-196.1,30.5-196.1,85.9
			c0,63.8,38.4,89.7,60.1,89.7c4.2,0,12.1-0.8,22.1-2.9"/>
	</g>
	<g transform="matrix(1.02109,0,0,1.02109,993.161,275.303)" class="st1">
		<path class="st16" d="M4704.9,270.2c5-17.9,7.5-36.7,7.5-56.3c0-115.5-93.4-209-209-209c-115.5,0-208.6,93.9-208.6,209
			c0,19.6,2.9,38.4,7.5,56.3H4704.9z"/>
	</g>
	<g transform="matrix(-1.02109,0,0,1.02109,2158.17,828.964)" class="st1">
		<polygon class="st21" points="-4035.1,1558.9 -3757.7,1558.9 -3757.7,1558.9 		"/>
	</g>
	<g transform="matrix(1.02109,0,0,1.02109,1110.67,236.578)" class="st1">
		<path class="st21" d="M4922.2,2133.9V-66.6h-533.9V43.1"/>
	</g>
	<g transform="matrix(1.02109,0,0,1.02109,113.156,781.647)" class="st1">
		<path class="st22" d="M3075.8,70.8l345,871.8l552.3-612.8L3075.8,70.8z"/>
	</g>
	<g transform="matrix(1.02109,0,0,1.02109,306.567,578.236)" class="st1">
		<path class="st23" d="M3433.8,210.4v258.2h115.6l56.3,97.2l56.3-97.2h115.5V210.4L3433.8,210.4L3433.8,210.4z"/>
	</g>
	<g transform="matrix(1.02109,0,0,1.02109,349.263,496.958)" class="st1">
		<path class="st24" d="M3513,415.5c0,10-7.9,17.9-17.9,17.9s-17.9-7.9-17.9-17.9c0-10,7.9-17.9,17.9-17.9S3513,405.5,3513,415.5"/>
	</g>
	<g transform="matrix(1.02109,0,0,1.02109,373.629,496.958)" class="st1">
		<path class="st24" d="M3558.2,415.5c0,10-7.9,17.9-17.9,17.9c-10,0-17.9-7.9-17.9-17.9c0-10,7.9-17.9,17.9-17.9
			C3549.9,397.6,3558.2,405.5,3558.2,415.5"/>
	</g>
	<g transform="matrix(1.02109,0,0,1.02109,397.995,496.958)" class="st1">
		<path class="st24" d="M3603,415.5c0,10-7.9,17.9-17.9,17.9s-17.9-7.9-17.9-17.9c0-10,7.9-17.9,17.9-17.9S3603,405.5,3603,415.5"/>
	</g>
</g>
<g id="Layer_3" class="st0">
	<path class="st25" d="M5845.4,1215.5c28.9,372.3,138.7,716.6,21.2,938.4c-117.5,221.8-462.8,321.4-864.4,429.8
		c-402.2,108.4-860.7,225.2-1209,62.3c-348.7-163.6-587-606.9-507.9-965.7s475.9-633.5,766.1-936.4s473.2-634.1,766.7-756
		c293.5-121.8,699.4-33.7,875.8,210.4C5869.3,442.7,5817.1,843.2,5845.4,1215.5"/>
	<rect x="5647.8" y="2301" class="st26" width="178.4" height="237.6"/>
	<rect x="3280.6" y="339.7" class="st26" width="2228.9" height="1686.6"/>
	<path class="st27" d="M3389.3,408.7c0,17.5-14.1,31.6-31.6,31.6c-17.5,0-31.6-14.1-31.6-31.6c0-17.5,14.1-31.6,31.6-31.6
		C3375.2,377,3389.3,391.2,3389.3,408.7L3389.3,408.7"/>
	<path class="st27" d="M3511.5,408.7c0,17.5-14.1,31.6-31.6,31.6c-17.5,0-31.6-14.1-31.6-31.6c0-17.5,14.1-31.6,31.6-31.6l0,0
		C3497.4,377,3511.5,391.2,3511.5,408.7L3511.5,408.7"/>
	<path class="st27" d="M3633.4,408.7c0,17.5-14.1,31.6-31.6,31.6c-17.5,0-31.6-14.1-31.6-31.6c0-17.5,14.1-31.6,31.6-31.6
		C3619.2,377,3633.4,391.2,3633.4,408.7L3633.4,408.7"/>
	<rect x="5673.1" y="2388.8" class="st27" width="44.8" height="44.8"/>
	<path class="st28" d="M5695.6,2388.8V2301"/>
	<circle class="st29" cx="5823.5" cy="2421.5" r="61.3"/>
	
		<rect x="4459.6" y="455.9" transform="matrix(0.5 -0.866 0.866 0.5 1637.5563 4826.8389)" class="st30" width="1078.7" height="1078.7"/>
	<path class="st7" d="M3621.9,2075.4c0-6.1-12.8-31.6-44.8-31.6c-18.8,0-47.8,17.8-47.8,20.2c22.9,5,43.8,34.3,57.6,34.3
		C3601.1,2098.3,3621.9,2089.9,3621.9,2075.4"/>
	<rect x="5952.5" y="2486.1" class="st7" width="297.5" height="83.8"/>
	<path class="st7" d="M5748.5,533.5c33.3-119.2-36-242.7-155.2-276c-119.2-33.3-242.7,36-276,155.2c-11.1,39.4-11.1,81.5,0,120.8
		H5748.5z"/>
	<path class="st6" d="M4588.9,1724.4c0,28.9-25.2,132.3-139,132.3c-103.3,0-365.9-444.6-373.9-461.8c-27.3-2.7-74.7-38-88.2-85.8
		c-2-7.4,28.9-49.5,63.3-39.4c8.1,2.4-26.3-40.4-31-47.8c-10.8-16.8-4.4-39.7,1-39.7c5,0,73.4,92.6,78.4,92.9s45.1,18.8,47.1,22.6
		c2,3.7,0,59.6,7.4,70c7.4,10.4,273.6,293.8,273.6,293.8c2.4-27.3,29.6-101.6,33.7-109.7C4465.7,1544,4588.9,1638.6,4588.9,1724.4"
		/>
	<path class="st31" d="M4030.5,1284.8c-5.7-7.7-9.4-31.3,9.1-31.6c61.9,0,94.2,19.2,94.2,28.6s0,58.2,5,67
		c1.7,2.7,27.9,32,63.6,70.7c16.2,18.5,42.7,46.4,42.7,46.4c72.7,78.4,156.9,169,164.3,177.4c2.7-16.5,21.2-76.7,30-94.9"/>
	<path class="st31" d="M4265.5,1691.4c-96.6-126.6-194.2-292.8-207.3-313.4"/>
	<path class="st31" d="M4552.3,1765.4c-6.4,16.5-35.3,73-124.2,73c-16.5,0-37.4-12.1-60.9-32.6"/>
	<path class="st10" d="M4651.9,1101c-6.4-37-34.7-114.1-34.7-181.1c0-101,62.3-158.2,179.4-158.2c82.5,0,115.4,54.2,127.9,80.8
		c10.4,22.6,4.4,46.8,15.8,70c46.4,92.6,84.8,83.1,152.8,197.6c16.5,27.6,25.9,124.9,20.5,155.5c-28.9,1.3-67.7,14.5-67.7,14.5
		c-14.5,14.8-22.2,35-22.2,55.5c-13.5-11.1-84.5-68.7-166.6-68.7c-22.2,0-127.2,19.2-154.5,40.1c-4.7-6.7-27.3-18.5-36-18.5
		c-15.5,2-28.3,3-40.4,7.4c-13.8-46.8,26.3-109.7,26.3-182.8C4653.6,1109.4,4652.9,1105.4,4651.9,1101"/>
	<path class="st8" d="M4671.7,1292.2c-170,0-227.9,231.2-227.9,254.8c0,23.2,130.6,104.7,148.8,104.7
		c18.2,0,127.6-269.6,127.6-287.1S4705.4,1291.9,4671.7,1292.2"/>
	<path class="st31" d="M4552.3,1306.3C4460,1371,4426,1511,4426,1528.8c0,23.2,130.6,104.7,148.8,104.7s127.6-269.6,127.6-287.1
		c0-17.5-15.1-72.4-48.8-72.4"/>
	<path class="st8" d="M4839.4,1272c414.3-27.3,356.1,857.6,324.5,892c-31.6,34.7-390.4,139.7-433.5,117.1
		C4687.2,2258.5,4309.2,1306.7,4839.4,1272"/>
	<path class="st6" d="M4899.3,1086.2c0,0-6.7,41.4-7.4,54.2c-1.7,21.5,7.4,152.8,10.8,175.4c-12.8,14.5-106.4,27.6-116.8,19.5
		c0-18.2-9.1-111.4-12.8-124.2c-70-9.1-124.9-93.2-124.9-195.9c0-20.5,2.4-41.1,6.7-60.9c21.2-6.7,51.8-40.1,56.5-52.2l-4.7-12.1
		c19.9,64,140,122.9,184.1,127.9l-4.7,7.4c6.4-12.8,17.5-20.9,30-20.9c19.5,0,35.3,19.5,35.3,44.1c0,24.2-15.8,44.1-35.3,44.1
		c-9.4-0.3-18.5-4.7-24.6-12.1"/>
	<path class="st31" d="M4686.9,1155.2c-33.7-36-55.2-92.9-55.2-157.5c0-20.5,2.4-41.1,6.7-60.9"/>
	<path class="st31" d="M4846.4,1160.6c-21.9,21.2-48.5,33.7-77.1,33.7c-12.5,0-24.6-2.4-36-6.7"/>
	<path class="st31" d="M4869.3,1008.1c6.4-12.8,17.5-20.9,30-20.9c19.5,0,35.3,19.5,35.3,44.1c0,24.2-15.8,44.1-35.3,44.1
		c-9.4-0.3-18.5-4.7-24.6-12.1"/>
	<path class="st31" d="M4769.3,956.3c39,24.6,82.1,41.4,104.7,44.1"/>
	<path class="st31" d="M4689.9,872.5c5,16.5,16.8,33,32.6,48.1"/>
	<path class="st31" d="M4695,884.3c-4.7,12.1-35.3,45.4-56.5,52.2"/>
	<path class="st31" d="M4946.1,934.1c37.4,53.2,73,62.9,129.6,158.2c16.5,27.6,26.3,123.5,20.9,154.2"/>
	<path class="st31" d="M4773.7,743.6h5c82.5,0,115.4,54.2,127.9,80.8c5.7,12.8,6.4,25.9,8.1,39"/>
	<path class="st31" d="M4609.1,1278.1c-13.8-46.8,26.3-109.7,26.3-182.8c0-28.9-36-117.5-36-193.5c0-68.7,28.9-117.1,84.5-141"/>
	<path class="st31" d="M4878.1,1198.6c-2-34.3-3.7-66.3-2.7-76.1"/>
	<path class="st31" d="M4832.3,1315.4c24.6-4.4,47.8-10.8,53.9-17.2c-1.3-8.1-3-30-5-55.9"/>
	<path class="st31" d="M4756.6,1193.2c3.4,12.8,12.8,106,12.8,124.2"/>
	<path class="st31" d="M4620.2,1346.1c34.3-40.7,81.5-70.7,145.1-84.5"/>
	<path class="st31" d="M4545.9,1712.6c-9.1-96.3-5.4-190.5,20.5-268.3"/>
	<path class="st31" d="M5166.2,2001.4c-3.7,80.1-12.8,136.3-20.5,144.4c-31.6,34.7-390.4,139.7-433.5,117.1
		c-17.8-9.4-94.9-181.8-139-381.7"/>
	<path class="st31" d="M5108.6,1497.5c41.1,119.5,56.5,263.9,58.9,385.7"/>
	<path class="st31" d="M4882.1,1256.9c45.1,7.7,86.5,28.9,119.5,60.2"/>
	<path class="st11" d="M4744.8,989.6c0,10.8-4.4,19.5-9.4,19.5s-9.4-8.8-9.4-19.5s4.4-19.5,9.4-19.5S4744.8,978.8,4744.8,989.6"/>
	<path class="st31" d="M4695,1009.1c-1.3,8.8-8.1,44.8-22.6,59.2"/>
	<path class="st31" d="M4721.9,1115.5c6.1,1,30.6-7.1,36.4-23.6"/>
	<path class="st6" d="M5288.4,1612.6c0,0,96.6,277.3,96.6,308.3s-288.8,240.3-288.8,240.3l-147.4,12.5l256.1-262.9l-96.6-239.7
		L5288.4,1612.6z"/>
	<path class="st31" d="M5090.5,1653.4c5.4,14.1,95.9,239.3,95.9,239.3l-251.8,260.2"/>
	<path class="st31" d="M5345.9,1829.4c12.1,40.1,21.2,70,21.2,73.7c0,12.5-46.4,50.8-46.4,50.8"/>
	<path class="st31" d="M5270.2,1589.1c0,0,15.1,47.8,33.7,106"/>
	<path class="st8" d="M5023.8,1290.9c170.3-48.1,308.7,248.7,293.2,289.8c-15.8,40.7-213.4,107-246.7,89.9
		C5036.9,1653.4,4913.1,1322.2,5023.8,1290.9"/>
	<path class="st31" d="M5090.5,1653.4c-17.5,2.7-31.3,2.7-38-1c-10.4-5.4-29.3-40.4-47.1-87.8"/>
	<path class="st31" d="M5293.8,1521.4c5.7,19.2,7.7,33.7,5,41.1c-8.1,21.5-67,50.2-125.5,69.7"/>
	<path class="st31" d="M4962.9,1401.6c-7.1-63.3,1.3-117.1,43.1-128.9c94.2-26.6,178.4,52.2,232.2,134.6"/>
	<path class="st32" d="M4526.7,2065.7c171,0,799.4,316.1,799.4,335.9s3.4,141.7-18.5,141.7c-666.4,0-965-128.2-965-345.3
		C4342.6,2111.5,4431.8,2065.7,4526.7,2065.7"/>
	<path class="st6" d="M5360.7,2407c-13.5,0-21.2,122.9-12.8,136.7c22.9,9.1,113.8,22.6,127.2,22.6s92.6-13.5,92.6-90.5
		C5568.1,2423.8,5488.3,2407,5360.7,2407"/>
	<path class="st31" d="M4714.5,2100.7c248.4,90.9,593.4,268.3,593.4,283.1c0,19.9,3.4,141.7-18.5,141.7
		c-666.4,0-965-128.2-965-345.7c0-86.5,89.2-132.3,184.1-132.3c15.5,0.3,30.6,2,45.8,5"/>
	<path class="st31" d="M5342.9,2388.8c-4.7,0-8.4,15.1-11.4,35.3"/>
	<path class="st31" d="M5331.5,2424.1c-5.4,37.4-6.7,92.6-1.3,101.3c22.9,9.1,113.8,22.6,127.2,22.6s92.6-13.5,92.6-90.9
		c0-40.4-49.1-59.6-132.3-66"/>
	<path class="st31" d="M4020.1,1178.4c-4.7-5.4-8.8-11.4-12.5-17.8c-4.7-11.8-31,12.5-6.4,48.8"/>
	<path class="st31" d="M4090.5,1258.2c-6.1-4.7-26.9-28.3-46.4-50.8"/>
	<path class="st31" d="M4003.9,1251.5c-26.9,10.4,12.8,60.6,32.6,78.8"/>
	<path class="st31" d="M3976,1278.1c-16.2,21.2,29.6,65,42.7,71.4"/>
	<path class="st32" d="M5425.4,1943.2c90.5,0,142.4,90.5,142.4,144.4c0,307.3-884.6,455.7-905.8,455.7s-45.8-117.1-45.8-125.9
		C4616.5,2408.7,5235.2,1943.2,5425.4,1943.2"/>
	<path class="st31" d="M4768.3,2271c102.3-72.7,236.6-162.9,359.1-232.9"/>
	<path class="st31" d="M5158.8,2393.9c-240,88.2-503.2,131.6-514.6,131.6c-21.2,0-45.8-117.1-45.8-126.2c0-2,28.9-25.2,76.1-60.2"/>
	<path class="st31" d="M5228.5,1983.9c73-36,136.7-58.9,178.7-58.9c90.5,0,142.4,90.5,142.4,144.4c0,75.1-52.5,140.4-132.6,196.6"/>
	<path class="st6" d="M4580.2,2423.8c-18.2,0-210,32.6-210,91.9c0,68.3,41.4,96.3,64.3,96.3c22.9,0,164.6-31,177.4-52.8
		C4625,2537.6,4580.2,2424.1,4580.2,2423.8"/>
	<path class="st31" d="M4529.4,2570.2c32-9.4,59.2-19.9,64.6-28.9c12.8-21.5-31.6-135.3-31.6-135.3c-18.2,0-210,32.6-210,92.2
		c0,68.3,41.4,96.3,64.3,96.3c8.1-0.3,16.2-1.3,23.9-3"/>
	<path class="st31" d="M5723.2,508.3c33.3-119.2-36-242.7-155.2-276c-119.2-33.3-242.7,36-276,155.2c-11.1,39.7-11.1,81.5,0,120.8
		H5723.2z"/>
	<rect x="5930.9" y="2464.2" class="st33" width="297.5" height="83.8"/>
	<path class="st33" d="M6079.7,2464.2V106.7h-571.9v117.5"/>
	<rect x="3348.3" y="2506.3" class="st26" width="609.6" height="87.8"/>
	<rect x="3441.2" y="2435.3" class="st7" width="609.6" height="73"/>
	<rect x="3371.5" y="2362.2" class="st26" width="609.6" height="73"/>
	<path class="st7" d="M3715.8,1999.7c-14.8-1.3-35-58.6-16.5-87.2c39-60.2,140.7-80.1,178.1-165.6
		C3877.1,1776.2,3906.7,2015.2,3715.8,1999.7"/>
	<path class="st34" d="M3652.9,2209.7c0-105,78.8-272.3,128.6-307"/>
	<path class="st34" d="M3736.7,1956.3c-3.4-7.4-9.1-31.3-7.1-45.1"/>
	<path class="st34" d="M3763.3,1920.3c6.1,1.7,34.3-0.3,50.2-5"/>
	<path class="st34" d="M3663.7,2132.3c-0.3-10.1-15.8-63.3-74.7-56.5"/>
	<path class="st34" d="M3605.8,2075.4c-2-4.7-10.8-14.1-15.1-15.5"/>
	<path class="st27" d="M3725.9,2362.2l31.3-152.5H3558l31.3,152.5H3725.9z"/>
	<path class="st30" d="M3054.4,825.7l369.9,934l591.4-656L3054.4,825.7z"/>
	<path class="st35" d="M3641.1,762.1v276.7h123.5l60.6,104l60.6-104h123.5V762.1L3641.1,762.1L3641.1,762.1z"/>
	<path class="st27" d="M3770.4,896.4c0,10.8-8.8,19.2-19.2,19.2c-10.8,0-19.2-8.8-19.2-19.2c0-10.8,8.8-19.2,19.2-19.2l0,0
		C3761.9,877.2,3770.4,885.6,3770.4,896.4"/>
	<path class="st27" d="M3844.4,896.4c0,10.8-8.8,19.2-19.2,19.2c-10.8,0-19.2-8.8-19.2-19.2c0-10.8,8.8-19.2,19.2-19.2l0,0
		C3836,877.2,3844.4,885.6,3844.4,896.4"/>
	<path class="st27" d="M3918.1,896.4c0,10.8-8.4,19.2-19.2,19.2c-10.8,0-19.2-8.4-19.2-19.2c0-10.8,8.4-19.2,19.2-19.2l0,0
		C3909.7,877.2,3918.1,885.6,3918.1,896.4"/>
	<g id="Layer_4" class="st1">
	</g>
</g>
<g id="Layer_5">
	<g id="Layer_3_1_">
		<g transform="matrix(1.62867,0,0,1.62867,1864.96,1496.17)">
			<path class="st2" d="M2291.6-635.9c182.3,159.4,381.4,324.5,400.8,508.6c19.8,184.5-140.7,388.1-323,502.3
				c-182.3,114.2-385.9,138.9-630.6,179.3c-244.4,40.8-529.6,97.7-694.6-16.5C879.1,423.7,833.9,138.5,936.8-43.8
				s354.4-260.9,519.9-420.7c165.1-159.4,244-399.3,365.7-442C1944.3-949.9,2109.4-795.3,2291.6-635.9"/>
		</g>
		<g transform="matrix(1.62867,0,0,1.62867,1812.26,339.583)">
			<path class="st24" d="M2270.6-119.4c0,37.1-29.9,66.6-66.6,66.6c-37.1,0-66.6-29.9-66.6-66.6c0-37.1,29.9-66.6,66.6-66.6
				C2241.1-186,2270.6-156.1,2270.6-119.4"/>
		</g>
		<g transform="matrix(1.62867,0,0,1.62867,2123.89,1045.95)">
			<path class="st15" d="M2393.8,159.9c0,90.2-73,163.6-163.6,163.6c-90.2,0-163.6-73-163.6-163.6c0-90.2,73-163.6,163.6-163.6
				C2320.8-3.3,2393.8,69.7,2393.8,159.9"/>
		</g>
		<g transform="matrix(-1.62867,0,0,1.62867,3737.98,-181.796)">
			<polygon class="st36" points="-1504,960.4 -1153.7,960.4 -1153.7,960.4 			"/>
		</g>
		<g transform="matrix(1.62867,0,0,1.62867,1308.5,1921.76)">
			<path class="st37" d="M2071.6,506.3h868.7"/>
		</g>
		<g transform="matrix(1.62867,0,0,1.62867,471.801,1921.76)">
			<path class="st37" d="M1740.9,506.3h640.4"/>
		</g>
		<g transform="matrix(1.62867,0,0,1.62867,1461.65,698.816)">
			<path class="st17" d="M2132.3,76.1l-3.7,17.2l-24,7.5c0,0-12-37.1-13.5-45.3c-11.6,8.6-77.8,27.3-89.1,28.8
				c-1.5-9-1.5-86.1,62.5-86.1c56.5,0,82,56.5,83.5,63.3C2145,63.4,2132.3,68.2,2132.3,76.1"/>
		</g>
		<g transform="matrix(1.62867,0,0,1.62867,1477.38,1196.67)">
			<path class="st38" d="M2138.2-81.4c-14.2,0-118.6,105.2-122.8,127.2c-1.9,9.7-33.7,173.7-33.7,173.7l174-48.7l10.1-221.2
				l-24.7-31.1H2138.2z"/>
		</g>
		<g transform="matrix(1.62867,0,0,1.62867,1264.57,855.132)">
			<path class="st15" d="M2054.2,433.6c-0.4-12,99.6-327.1,110.8-338c11.6-11.2,23.6-11.2,28.4-11.2c4.9,0.4,28.8,11.6,33.7,23.2
				c-8.6,20.2-29.2,31.8-29.2,31.8l-40.4,248.9L2054.2,433.6z"/>
		</g>
		<g transform="matrix(1.62867,0,0,1.62867,1385,1629.87)">
			<path class="st39" d="M2101.7,146.9l144.1,178.5l-70,70.4l-211.8-185.3l50.2-68.9L2101.7,146.9z"/>
		</g>
		<g transform="matrix(1.62867,0,0,1.62867,1347.44,1244.71)">
			<path class="st39" d="M2087.1,703.1c-19.5-17.6-247.4-301.7-247.4-336.8c0-78.2,89.1-106.3,113-112.3
				c33.3-3,181.9-15.3,205.1-14.6c16.8,18.3,212.2,60.3,240.3,56.5c0,14.2-22.5,113.4-182.3,113.4c-16.8,0-142.6-4.9-144.8-4.9
				c0,29.6,80.8,221.6,88.3,234.3"/>
		</g>
		<g transform="matrix(1.62867,0,0,1.62867,1552.21,1318.66)">
			<path class="st38" d="M2168-207.6c129.1,0,157.2,233.2,157.2,299.4c0,84.6-34.4,152-50.5,158.3c-46,17.6-216-40.4-226.4-68.1
				C1995.5,48,2082-207.6,2168-207.6"/>
		</g>
		<g transform="matrix(1.62867,0,0,1.62867,1442.84,729.729)">
			<path class="st37" d="M2124.6-5.8c10.1,9,19.1,20.6,26.2,34.1c1.1,2.2,2.2,4.5,3,6.7"/>
		</g>
		<g transform="matrix(1.62867,0,0,1.62867,1336.87,665.077)">
			<path class="st37" d="M2082.7,136.4c-24-46.8-13.8-100.3,22.8-119c12-6.4,25.4-7.9,38.9-6"/>
		</g>
		<g transform="matrix(1.62867,0,0,1.62867,1463.35,853.67)">
			<path class="st37" d="M2132.9,58c-4.9,5.6-10.9,10.1-17.6,13.5c-25.1,12.7-56.1,6.4-80.8-13.8"/>
		</g>
		<g transform="matrix(1.62867,0,0,1.62867,1453.51,759.531)">
			<path class="st37" d="M2129.1,30.5c3.4-8.2,11.2-13.8,20.6-13.8c12.4,0,22.1,9.7,22.1,22.1c0,12.4-9.7,22.1-22.1,22.1
				c-3.4,0-6.7-0.7-9.7-2.2"/>
		</g>
		<g transform="matrix(-0.710328,-1.4656,-1.4656,0.710328,1478.09,846.681)">
			<path class="st37" d="M-1054.1-1859c12-2.2,49-7.1,67.4,0"/>
		</g>
		<g transform="matrix(1.62867,0,0,1.62867,1483.45,884.712)">
			<path class="st37" d="M2140.9-10.6c4.5,15,44.9,69.2,55,77.1c-0.7,6.7-13.5,19.1-28.1,29.9"/>
		</g>
		<g transform="matrix(1.62867,0,0,1.62867,1432.16,743.407)">
			<path class="st37" d="M2120.4,63.2l18-5.6l3.7-17.2"/>
		</g>
		<g transform="matrix(1.62867,0,0,1.62867,1384.21,749.015)">
			<path class="st37" d="M2101.5,28.1c13.5-4.5,24.7-9,29.2-12c1.1,6,7.9,27.3,11.2,38.2"/>
		</g>
		<g transform="matrix(1.5792,-0.39834,-0.39834,-1.5792,1326.06,755.147)">
			<path class="st37" d="M2003.8-548.2c4.5-0.4,17.2-0.4,32.2,0"/>
		</g>
		<g transform="matrix(1.62867,0,0,1.62867,1455.1,1075.92)">
			<path class="st37" d="M2129.5,344.4c-18-9-30.7-18-33.3-24.7c-16.1-41.5-19.1-94.3-13.1-147.8"/>
		</g>
		<g transform="matrix(1.62867,0,0,1.62867,1678.91,1297.91)">
			<path class="st37" d="M2218.2-40.1c13.5,53.9,18,106.7,18,133.2c0,84.6-34.4,152-50.5,158.3c-21.7,8.2-70.4,0-117.1-14.2"/>
		</g>
		<g transform="matrix(1.62867,0,0,1.62867,1523.8,873.913)">
			<path class="st37" d="M2156.9,57.3c5.6-2.2,11.6-3.4,17.2-3.4c34.1,0,61,16.1,82.3,41.2"/>
		</g>
		<g transform="matrix(0.693014,-1.47387,-1.47387,-0.693014,1477.32,960.007)">
			<path class="st37" d="M772.6-1952c29.2,3,56.9,3,80.8,0"/>
		</g>
		<g transform="matrix(1.62867,0,0,1.62867,1354.97,843.73)">
			<path class="st37" d="M2090,108.3c3.7-9.7,6.7-15.7,7.9-17.2c11.6-11.2,23.6-11.2,28.4-11.2c4.9,0.4,28.8,11.6,33.7,23.2"/>
		</g>
		<g transform="matrix(0.506197,-1.54801,-1.54801,-0.506197,1379.76,1060.47)">
			<path class="st37" d="M433.5-1962.9c56.9,0.7,126.5,0.7,178.1,0"/>
		</g>
		<g transform="matrix(0.415637,-1.57474,-1.57474,-0.415637,1272.91,1179.76)">
			<path class="st37" d="M306-2026.7c2.2,0.7,15.3,0.7,35.6,0"/>
		</g>
		<g transform="matrix(1.35752,0.899836,0.899836,-1.35752,1400.99,859.538)">
			<path class="st37" d="M1802.5,1085.3c4.5,2.2,18.3,2.6,27.7,0"/>
		</g>
		<g transform="matrix(1.35749,0.899881,0.899881,-1.35749,1387.34,876.819)">
			<path class="st37" d="M1802,1076.5c4.5,2.2,18.3,2.6,27.7,0"/>
		</g>
		<g transform="matrix(0.26657,-1.6067,-1.6067,-0.26657,1488.72,1064.27)">
			<path class="st37" d="M84.7-2022.1c10.9,1.5,203.2,5.6,241.8,0"/>
		</g>
		<g transform="matrix(1.24509,-1.0499,-1.0499,-1.24509,1434.11,941.945)">
			<path class="st37" d="M1537.1-1435.8c24.3,3,52.4,4.5,69.6,0"/>
		</g>
		<g transform="matrix(0.853735,1.38697,1.38697,-0.853735,988.255,1021.45)">
			<path class="st37" d="M1099.2,1491.9H1301"/>
		</g>
		<g transform="matrix(1.62867,0,0,1.62867,1644.37,1629.93)">
			<path class="st37" d="M2204.2,48.2c0,14.2-22.5,113.4-182.3,113.4c-16.8,0-142.6-4.9-144.8-4.9c0,29.6,80.8,221.6,88.3,234.3"/>
		</g>
		<g transform="matrix(1.62867,0,0,1.62867,1202.98,1693.64)">
			<path class="st37" d="M2029.8-33.1c-23.6,8.6-113,34.1-113,112.3c0,35.2,227.9,319.2,247.4,336.8"/>
		</g>
		<g transform="matrix(1.37313,-0.875829,-0.875829,-1.37313,1350.63,1728.91)">
			<path class="st37" d="M1519.6-1452.1h123.9"/>
		</g>
		<g transform="matrix(1.39312,-0.843669,-0.843669,-1.39312,1360.52,1747.5)">
			<path class="st37" d="M1554-1425.4h126.1"/>
		</g>
		<g transform="matrix(1.20855,1.09177,1.09177,-1.20855,1407.43,1549.06)">
			<path class="st37" d="M1795,1118.3h90.2"/>
		</g>
		<g transform="matrix(1.02146,1.26853,1.26853,-1.02146,1483.93,1415.56)">
			<path class="st37" d="M1551.7,1413.7h159.1"/>
		</g>
		<g transform="matrix(-1.16799,1.13505,1.13505,1.16799,1482.58,1648.36)">
			<path class="st37" d="M-1362.7,1734.4h122.8"/>
		</g>
		<g transform="matrix(-1.168,1.13504,1.13504,1.168,1493.6,1664.73)">
			<path class="st37" d="M-1361.4,1742h122.8"/>
		</g>
		<g transform="matrix(0,1.62867,1.62867,0,881.225,1884.04)">
			<path class="st37" d="M453.3,1864.5h76"/>
		</g>
		<g transform="matrix(0,1.62867,1.62867,0,1072.33,1477.43)">
			<path class="st37" d="M99.4,1747.3h461.8"/>
		</g>
		<g transform="matrix(0,1.62867,1.62867,0,1528.49,1585.18)">
			<path class="st37" d="M33.5,1819h679.3"/>
		</g>
		<g transform="matrix(1.62867,0,0,1.62867,1597.11,1039.43)">
			<path class="st38" d="M2185.6,20.2c61.4,21.3,30.3,153.4,12.7,157.6c-17.2,4.5-121.6-37.1-125-47.9
				C2070.4,119,2113.8-4.9,2185.6,20.2"/>
		</g>
		<g transform="matrix(1.62867,0,0,1.62867,1519.66,1024.48)">
			<path class="st37" d="M2155.1,37.3c18-18,40.4-28.4,66.6-19.5c61.4,21.3,30.3,153.4,12.7,157.6c-17.2,4.5-121.6-37.1-125-47.9
				c-0.7-2.6,1.1-11.6,5.2-23.2"/>
		</g>
		<g transform="matrix(1.62867,0,0,1.62867,1493.1,1243.83)">
			<path class="st15" d="M2144.5,11.1c-4.9,7.5-32.9,96.9-32.9,96.9s-196.1,84.6-205.8,88.7c-3.4-4.9-15.3-13.8-38.9-13.8
				c-43.4,0-51.3,28.8-51.3,35.2c0,6.4,66.2,19.8,83.8,19.5c17.6-0.4,266.1-38.2,275.1-42.7c9-4.5,68.5-144.8,68.5-144.8
				C2227.2,49.2,2153.1,26.4,2144.5,11.1"/>
		</g>
		<g transform="matrix(1.62867,0,0,1.62867,1370.72,1026.13)">
			<path class="st37" d="M2096.3,341.4c-62.9,9.7-124.3,18.3-132.5,18.7c-17.6,0.4-83.8-13.5-83.8-19.5s7.5-35.2,51.3-35.2
				c24,0,35.6,9,38.9,13.8c9.7-4.5,205.8-88.7,205.8-88.7s27.7-89.8,32.9-96.9"/>
		</g>
		<g transform="matrix(1.62867,0,0,1.62867,1579.43,1199.89)">
			<path class="st37" d="M2178.7,65.8c0,0-59.5,140.3-68.5,144.8c-2.6,1.1-24.3,5.2-55,10.1"/>
		</g>
		<g transform="matrix(1.62867,0,0,1.62867,363.508,830.883)">
			<rect x="2754" y="657" class="st40" width="379.1" height="35.2"/>
		</g>
		<g transform="matrix(1.62867,0,0,1.62867,1633.47,1396.3)">
			<path class="st37" d="M2200.1,333.7h-237.3v-35.2h379.1v35.2h-66.6"/>
		</g>
		<g transform="matrix(-1.62867,0,0,1.62867,1691.46,468.676)">
			<polygon class="st40" points="-1841.1,729 -1264,729 -1264,729 			"/>
		</g>
		<g transform="matrix(1.62867,0,0,1.62867,890.86,1248.61)">
			<path class="st37" d="M1906.5,211.1h416.6v28.8H1746v-28.8h88.7"/>
		</g>
		<g transform="matrix(-1.62867,0,0,1.62867,1848.61,415.839)">
			<polygon class="st24" points="-1637.2,732.5 -1434,732.5 -1434,732.5 			"/>
		</g>
		<g transform="matrix(-1.62867,0,0,1.62867,1829.07,396.295)">
			<polygon class="st37" points="-1639.5,734.4 -1436.2,734.4 -1436.2,734.4 			"/>
		</g>
		<g transform="matrix(1.62867,0,0,1.62867,1355.67,1856.91)">
			<path class="st15" d="M2090.1,353.3l66.6,73l-36.3,101.1l111.9-86.8l-64.7-133.6"/>
		</g>
		<g transform="matrix(-0.710521,-1.46551,-1.46551,0.710521,1467.19,1678.29)">
			<path class="st37" d="M-1363.8-1701.7h89.1"/>
		</g>
		<g transform="matrix(1.62867,0,0,1.62867,1344.27,1891.79)">
			<path class="st37" d="M2085.8,320.4l66.6,73l-36.3,101.1l111.9-86.8l-11.2-23.2"/>
		</g>
		<g transform="matrix(1.62867,0,0,1.62867,1536.56,1774.13)">
			<path class="st15" d="M2161.9,258.1l37.1,62.9l25.4,13.5l-48.7,113.4l-11.2-71.1l-64.4-58.8"/>
		</g>
		<g transform="matrix(-1.20277,-1.09813,-1.09813,1.20277,1471.46,1630.48)">
			<path class="st37" d="M-1860.2-1143.9h22.1"/>
		</g>
		<g transform="matrix(1.62867,0,0,1.62867,1525.16,1762.73)">
			<path class="st37" d="M2157.3,253.9l37.1,62.9l25.4,13.5l-48.7,113.4l-11.2-71.1l-13.8-12.7"/>
		</g>
		<g transform="matrix(0,1.62867,1.62867,0,1738.99,1674.81)">
			<path class="st37" d="M162.7,1996h491.8"/>
		</g>
		<g transform="matrix(0,1.62867,1.62867,0,1827.71,1767.79)">
			<path class="st37" d="M293.1,2124.8h304.3"/>
		</g>
		<g transform="matrix(0,1.62867,1.62867,0,1728.37,1482.48)">
			<path class="st37" d="M280.8,2185.9h103.7"/>
		</g>
		<g transform="matrix(1.62867,0,0,1.62867,1385.58,758.156)">
			<path class="st19" d="M2101.9,48.4c1.1,3.7,3.7,6.7,6,6s3-4.1,1.9-8.2c-1.1-3.7-3.7-6.7-6-6C2101.9,40.9,2101.1,44.3,2101.9,48.4
				"/>
		</g>
		<g transform="matrix(-0.496092,1.55127,1.55127,0.496092,1361.43,806.233)">
			<path class="st41" d="M-578.1,2010.7c1.5,0,3,0,4.5,0"/>
		</g>
		<g transform="matrix(0.303656,1.60011,1.60011,-0.303656,1366.77,785.216)">
			<path class="st41" d="M440.2,2039.3c3,0.7,9.7,1.1,16.1,0"/>
		</g>
		<g transform="matrix(-0.790739,1.42383,1.42383,0.790739,1421.11,817.788)">
			<path class="st41" d="M-980.8,1874.6c4.1,3,13.1,3.7,20.2,0"/>
		</g>
		<g transform="matrix(1.62867,0,0,1.62867,1063.52,795.054)">
			<path class="st42" d="M1974.6,60.8c0,29.6-24,53.1-53.1,53.1c-29.6,0-53.1-24-53.1-53.1c0-29.6,24-53.1,53.1-53.1
				C1951,7.6,1974.6,31.2,1974.6,60.8"/>
		</g>
		<g transform="matrix(-1.62867,0,0,1.62867,612.832,764.417)">
			<path class="st43" d="M-2097.4,48.5h300.9"/>
		</g>
		<g transform="matrix(-1.62867,0,0,1.62867,752.989,825.688)">
			<path class="st43" d="M-2011.6,73.1h159.4"/>
		</g>
		<g transform="matrix(-1.62867,0,0,1.62867,1920.28,-1314.61)">
			<polygon class="st36" points="-1707.7,1137.4 -1348.1,1137.4 -1348.1,1137.4 			"/>
		</g>
		<g transform="matrix(1.62867,0,0,1.62867,1102.22,534.036)">
			<path class="st36" d="M1990-290.5l105.5,247.8l221.2-153.8L1990-290.5z"/>
		</g>
	</g>
</g>
</svg>
