<?xml version="1.0" encoding="utf-8"?>
<!-- Generator: Adobe Illustrator 22.1.0, SVG Export Plug-In . SVG Version: 6.00 Build 0)  -->
<svg version="1.1" xmlns="http://www.w3.org/2000/svg" xmlns:xlink="http://www.w3.org/1999/xlink" x="0px" y="0px"
	 viewBox="0 0 6250 2573.6" style="enable-background:new 0 0 6250 2573.6;" xml:space="preserve">
<style type="text/css">
	.st0{display:none;}
	.st1{display:inline;}
	.st2{fill:#F2E6D4;}
	.st3{display:inline;fill:none;stroke:#FB5822;stroke-width:7.5049;stroke-linecap:round;stroke-linejoin:round;}
	.st4{display:inline;fill:#DC735B;}
	.st5{display:inline;opacity:0.6672;fill:#FFD1BD;enable-background:new    ;}
	.st6{display:inline;fill:#FFFFFF;}
	.st7{display:inline;fill:#FF9088;}
	.st8{display:inline;fill:#46DBC9;}
	.st9{display:inline;fill:none;stroke:#525587;stroke-width:18.7622;stroke-linecap:round;stroke-linejoin:round;}
	.st10{display:inline;fill:#EECB55;}
	.st11{display:inline;fill:#525587;}
	.st12{display:inline;fill:#3C3744;}
	.st13{display:inline;fill:#E49D75;}
	.st14{fill:#FF9088;}
	.st15{fill:#FFFFFF;}
	.st16{fill:none;stroke:#525587;stroke-width:17.9374;stroke-linecap:round;stroke-linejoin:round;stroke-miterlimit:10;}
	.st17{fill:#EECB55;}
	.st18{fill:#46DBC9;}
	.st19{fill:#525587;}
	.st20{fill:#3C3744;}
	.st21{fill:none;stroke:#525587;stroke-width:18.5214;stroke-linecap:round;stroke-linejoin:round;stroke-miterlimit:10;}
	.st22{fill:none;stroke:#FB5822;stroke-width:14.5585;stroke-linecap:round;stroke-linejoin:round;stroke-miterlimit:10;}
	.st23{fill:#FFD1BD;}
	.st24{fill:#FB5D64;}
</style>
<g id="Layer_1" xmlns:vectornator="http://vectornator.io" class="st0">
	<g transform="translate(300,300)" class="st1">
		<path class="st2" d="M5248.4,330.7c263.3,304.8,466.7,627.2,486.5,968.7c19.1,341.5-146.2,702.8-409.5,944.3
			c-262.6,241.4-623.8,363.3-933.3,312.2c-308.9-51.7-567.4-276.2-895.3-517.7c-327.2-241.4-724.4-500-712.3-745.6
			c11.6-246.2,432.7-480.2,760.6-785.7c327.9-304.8,561.9-680.3,840.1-724.4C4663.3-261.8,4985.7,26,5248.4,330.7z"/>
	</g>
	<path class="st3" d="M3370.9,1163.2l186.3-201.4l186.3-201.4l81.2,262.1l81.2,262.1l-267.5-60.6L3370.9,1163.2z"/>
	<path class="st3" d="M5791.7,733l-104.2,379.7l342.8-66.4L5791.7,733z"/>
	<path class="st4" d="M3627.6,764h872.8v913.2h-872.8V764z"/>
	<path class="st5" d="M3946,659.5h1698.2v1223.8H3946V659.5z"/>
	<path class="st4" d="M5009.2,979.9c0-120.5,97.7-218.1,218.1-218.1s218.1,97.7,218.1,218.1s-97.7,218.1-218.1,218.1
		S5009.2,1100.5,5009.2,979.9z"/>
	<path class="st3" d="M4626.3,2056.9c0-123,99.7-222.7,222.7-222.7c122.9,0,222.7,99.7,222.7,222.7c0,123-99.7,222.7-222.7,222.7
		C4726.1,2279.6,4626.3,2179.8,4626.3,2056.9z"/>
	<path class="st6" d="M5313.3,561.2V730h1.1v180.2l-125.9-134.6h-362.1V561.2L5313.3,561.2L5313.3,561.2L5313.3,561.2z"/>
	<path class="st6" d="M4211.1,849.7v168.9h-1.1v180.2l125.9-134.6h362.1V849.7L4211.1,849.7L4211.1,849.7L4211.1,849.7z"/>
	<path class="st6" d="M5546.3,1279.9c0,120.8,52.5,142.7,52.5,164.5c0,21.9-23.9,142-30.5,157.8c17.7,24.8,142.7,37.7,166.5,31.2
		c2-23.5,31.9-176.5,38.6-186.7c6.8-10.4,82.4-70.8,82.4-121.1c0-112.4-7.4-261.8-82-261.8
		C5682.8,1063.9,5546.3,1108.1,5546.3,1279.9z"/>
	<path class="st7" d="M5923.1,1639.2c-58.4,1.5-184.6,24.1-184.6,24.1c-0.8,61.6,16.1,715.2,18.6,813.5h360.5l127.7-741.6
		c0-53.1-43-96.1-96.1-96.1c0,0-155.1,2.3-215.4,0C5930.6,1639.1,5927,1639.1,5923.1,1639.2z"/>
	<path class="st6" d="M4028.4,2194.4c20.6-11.3,219.2-158.4,230.1-172.1c10.8-13.7,49.8-92.3,53.1-97.4c3.2-5.1,24.2-14.7,26.8-12.5
		c16,13.6-9.7,59.9-12.7,66.9c14.9-13.6,109.1-87.3,120.7-83.7c83,26,51.9,136.9-0.2,163.9c-14.3,7.4-92.5,37.2-100,43.8
		c-7.5,6.5-336.3,280.3-343.7,285.6C3998.3,2369.9,4007.7,2205.7,4028.4,2194.4z"/>
	<path class="st6" d="M5218.8,1810.3c-14.2,21-49.9,73.2-64.1,93.6c-152.3-200.3-309.9-316.3-351.2-514
		c-40.1-25.4-37.7,65.4-7.7,133.7c-47,30.1-91.5,60.2-77.8,82.5c52.4,85.3,68.1,58.4,87.7,60.2c19.6,1.8,176.2,322.9,221.4,373.4
		c33.2,37.2,59.1,80.8,162,125c11-94.1,80.4-316.9,94.5-333.7C5270.6,1821.7,5232.9,1789.4,5218.8,1810.3z"/>
	<path class="st8" d="M5269.2,1853.4c-47.2-35.9-79-64.2-79.9-77.6c-2-31.4,186.3-299.2,314.5-214.3
		C5558.4,1601.1,5362.5,1923,5269.2,1853.4z"/>
	<path class="st9" d="M5372.8,1549.1c41.4-20.5,83.7-25.6,120.9-0.9"/>
	<path class="st9" d="M5259.1,1840.1c-47.8-35-79-64.2-79.9-77.6c-0.9-13.6,33.8-71.3,83.9-125.7"/>
	<path class="st8" d="M5623.4,1540.4c-377,3.5-452.1,650.7-469.6,936.3h713.6c90.1-280.2,156.6-877.8-184.8-931.9
		C5662,1541.8,5642.3,1540.3,5623.4,1540.4z"/>
	<path class="st7" d="M3138.4,1620.2c-53.1,0-96.1,43-96.1,96.1c0,0,69.1,559.5,94.3,763.5h519.3c-0.1-32.9-1.1-726.8-6.4-859.5
		C3521.7,1620.2,3138.4,1620.2,3138.4,1620.2z"/>
	<path class="st8" d="M3781.1,1597.2c-345.6,0-413.9,602.7-403.8,882.4h633.4C4067,2202.6,4076.4,1597.2,3781.1,1597.2z"/>
	<path class="st9" d="M4017.5,2036.2c8.6,163.4-8.8,333.5-33.2,442.3"/>
	<path class="st9" d="M3846.2,1597.1c61.5,32.8,103.4,101.1,130.6,187.5"/>
	<path class="st9" d="M3570.4,1655.2c27.3-27,57.7-48.4,91.6-62.8"/>
	<path class="st9" d="M4021.7,2177.2c23.2-12.2,207-148.1,224.1-166.1c17.1-18.1,45.5-91.9,57.9-102.8s20.6-16.9,28.1-8.8
		c7.4,8.1-5.6,49-21.6,70.5c30.3-31.4,101.7-81.4,126.9-90.2"/>
	<path class="st9" d="M4137.4,2256.4c-64.8,55.8-123.3,106.6-133.6,115.8"/>
	<path class="st9" d="M4438,2041.1c-28.3,14.4-84.2,35.4-110,53.9c-7.4,5.3-35,28.4-71.3,59.2"/>
	<path class="st9" d="M4350.1,1975.8c8.8-7.4,36.1-26.9,63.3-44.4c25.3-16.4,50.4-31.1,60.6-32.9"/>
	<path class="st9" d="M4371.9,2001.3c8.8-7.4,36.1-26.9,63.3-44.4c25.3-16.4,50.4-31.1,60.6-32.9"/>
	<path class="st9" d="M4382.5,2035.8c7.8-6.6,32-24.2,56.2-40.1c22.4-14.7,44.8-28.1,53.8-29.7"/>
	<path class="st6" d="M5773.3,1444.8c-6.8,19.6-37.8,164.8-40.1,187.6c-29.1,10.5-148.7-6.9-163.8-29.8
		c14.7-43.2,30.3-128.9,29-164.8"/>
	<path class="st9" d="M5560.5,1589.6c14.7-43.2,30.3-128.9,29-164.8"/>
	<path class="st9" d="M5764.4,1431.8c-6.8,19.6-37.8,164.8-40.1,187.6c-14.2,5-49.6,3.6-84.1-1.9"/>
	<path class="st9" d="M5549.6,1192.3c9.3-27.5,23-54.6,37-75"/>
	<path class="st9" d="M5700.1,1460c-15.8,3.2-31.8,3.2-47.5-0.1c-73.7-15.8-120.6-97.9-116.5-193.7"/>
	<path class="st9" d="M5739.8,1547.8c263.7,126.9,196,680,110.1,930.3"/>
	<path class="st9" d="M5203.1,2032c57.9-241.3,166.5-476,371-507.5"/>
	<path class="st9" d="M5141.3,2478.4c3.2-57.5,9.1-132.8,20-215.8"/>
	<path class="st9" d="M5817.6,2233c4.8,70.3,9.9,135.2,13.9,154.7c-21.1,25.6-69.9,90.5-69.9,90.5"/>
	<path class="st9" d="M5804.3,2018.3c0.6,8.8,2.3,39.8,4.8,80.3"/>
	<path class="st9" d="M5205.6,1797.8c-7.1,10.4-62.9,93.2-62.9,93.2s-249.6-295.3-266.5-318.5c-50.6-69.1-74.7-153.5-77.5-172.1
		c-2.6-17.5-11-38.2-25.8-28.5c-23.2,17.5-8,106.7,9.8,137.2"/>
	<path class="st9" d="M4753.8,1519.4c0.6,15.4,14.7,62.7,37.6,84.2"/>
	<path class="st9" d="M4726.6,1546.7c2.1,15.3,20.9,60.9,45.7,80"/>
	<path class="st9" d="M4699.8,1574.7c3,15.2,24.5,59.5,50.4,77.1"/>
	<path class="st9" d="M4953.3,1935.5c-51.7-91.7-95.5-194.1-149.3-268.9"/>
	<path class="st9" d="M5178.3,2150.3c-47.8-11.5-88-37.6-123.2-72.7"/>
	<path class="st9" d="M5577.5,1210.9c3.8-18.1,17.5-30.4,30.5-27.8c13,2.8,20.5,19.6,16.7,37.7"/>
	<path class="st9" d="M5702.4,1239.9c3.8-18.1,17.5-30.4,30.5-27.8c13,2.8,20.5,19.6,16.7,37.7"/>
	<path class="st9" d="M5647.1,1247.7c-7.7,10.7-28.1,34.7-37.6,39.2"/>
	<path class="st9" d="M5652.4,1323.8c11,2.3,35.3,3.8,59.8-0.8c5,17.9,0,57-45.6,63.5"/>
	<path class="st9" d="M3345.3,1605.2H3636"/>
	<path class="st9" d="M3124.7,2478.2l-96-777c0-53.1,43-96.1,96.1-96.1h36.2"/>
	<path class="st9" d="M6116.9,1627.4h-201.1"/>
	<path class="st9" d="M6096.4,2478.4l114-657.4"/>
	<path class="st9" d="M4190.7,1112.8l-0.1,62.9l130.1-132.8h358.5V828.2h-51.4"/>
	<path class="st9" d="M4514.7,828.2h-323.8v178.6"/>
	<path class="st9" d="M4247.5,893.3H4602"/>
	<path class="st9" d="M4247.5,977h123.8"/>
	<path class="st9" d="M5224.4,541.4h67.5V756l0.2,132.8L5162,756h-358.5v-28.9"/>
	<path class="st9" d="M4803.6,644.2V541.4h270.3"/>
	<path class="st9" d="M5235.3,606.4h-354.5"/>
	<path class="st9" d="M5006.8,690.3H4883"/>
	<path class="st6" d="M3287.3,1973.2l0.3,1c-12.6,28.2-125.4,347.7-120.5,374.1c5,26.6,31.4,73.6,50.9,84.5
		c8.9,5,97.9,24.1,204.1,46.8h640.5c-13.1-33.3-67.8-60.8-118.4-60.9c-17.2-0.6-44,0.6-63.5,22.9c-193-89.1-409.1-140-471.9-156.3
		l-6.9-17.8c20.9-39.9,83.8-155.6,92.6-173.7c-33.4-17-205-119.3-206.6-120.2l-0.1-0.3l-0.1,0.2
		C3287.9,1973.5,3287.3,1973.2,3287.3,1973.2z"/>
	<path class="st9" d="M3190.4,2213.1c-19.1,60-33,109.4-31.2,119.2c5,26.6,31.4,73.6,50.8,84.5c10.7,6,136.7,32.9,271.2,61.9"/>
	<path class="st9" d="M3279.1,1957.2c-5,10.7-29.1,77.8-54.5,152.4"/>
	<path class="st9" d="M3488.4,2076.7c-13,21.2-97.7,181-99.8,187.7c40,11.7,277.7,63.9,485.9,160.1c19.5-22.3,46.4-23.4,63.5-22.9
		c58.4,0.1,121.3,30.3,121.3,76.7"/>
	<path class="st8" d="M3582.5,1686.8c144,84.2-6.9,404.6-45.9,414.8c-76.6,5.3-252.9-105.3-269.9-150
		C3249.7,1906.7,3440.4,1603.7,3582.5,1686.8z"/>
	<path class="st9" d="M3625.8,1872.5c-21.5,102.4-76.8,202-98.2,207.6c-76.6,5.3-252.9-105.3-269.9-150
		c-6.2-16.4,15.5-67.5,52.4-121.6"/>
	<path class="st9" d="M3399.1,1707c55.3-47.5,118.6-74.4,174.5-41.7c22.2,13,37.4,31.7,47.1,53.8"/>
	<path class="st6" d="M3667.2,1663c21-57,17.7-248.6,15.6-267.5c-2.6-22.9-19.7-187.8,21.6-222.7c41.4-34.9,104.9-73.9,142.5-71.2
		c37.6,2.7,149.3,115,149.3,251.1s-123.8,201.1-152.7,202c-4,30.2-3.7,111.1-3.7,140.3C3827.9,1706.3,3697.7,1702.5,3667.2,1663z"/>
	<path class="st10" d="M3687.9,1276c-19.4-1.2-34.4,16.4-50.7,33c-14.6-107.5,36.1-296.3,108.7-309.1c12.5,0.5,14,17,10.4,31.5
		c45.6-41.6,131.1-64.7,167.4-64.9c47.1,0,63.7,37.1,63.7,49.8c0,32.3-21.2,80.5-29,93c12.5-6.6,22.4-9,32-9
		c24.2,0,30.1,37.6,30.1,48.7c0,39-41.4,78.8-61.9,78.8c-9.6,0-36.2-14.9-44.3-26.2c2.9,8.3,6,10.7,6.1,23.4
		c0.1,10.5-15.2,16.4-24.3,16.4c-24.2,0-72-47.1-115.7-47.1c-14.6,0-32.9,20.9-32.9,32.6c0,11.7,6.2,67.3,2.5,69.2
		c-11.3,8.9-16.5-17.6-61.4-20.4"/>
	<path class="st9" d="M3962.2,1420.5c-28,69.1-85.1,116.5-151,116.5c-33.4,0-64.5-12.1-90.7-33.1"/>
	<path class="st9" d="M3955.9,1214.2c16.7,32.9,24.6,68.2,24.6,110.1c0,9.9-0.6,19.7-1.7,29.3"/>
	<path class="st9" d="M3824.3,1677.6c-1.8-33.8-0.8-121.6,3.8-140.7"/>
	<path class="st9" d="M3667,1556.2c-2.6,34.4-7,66.7-14,88.9c13.4,15.7,49.4,27.8,86.7,33.3"/>
	<path class="st9" d="M3666.9,1380.3c2,9.8,4.1,55.5,3.2,108"/>
	<path class="st11" d="M3787.2,1282.6c0-10.1,4.4-18.4,9.8-18.4c5.4,0,9.8,8.2,9.8,18.4c0,10.1-4.4,18.4-9.8,18.4
		C3791.6,1301.1,3787.2,1292.8,3787.2,1282.6z"/>
	<path class="st11" d="M3926.3,1290c0-10.1,4.4-18.4,9.8-18.4c5.4,0,9.8,8.2,9.8,18.4c0,10.2-4.4,18.4-9.8,18.4
		C3930.6,1308.4,3926.3,1300.2,3926.3,1290z"/>
	<path class="st9" d="M3887,1331.2c2.3,16.3,15.5,43.5,30.2,53.9"/>
	<path class="st9" d="M3879.1,1424.5c-10.1-1.4-42-18.5-48.5-30.8c-11.9,5.7-17.8,46.2,6.5,52.4"/>
	<path class="st9" d="M3956.1,1214.2c-2.9,1-5.6,1.6-7.8,1.6c-19.4,0-51.9-32.5-51.9-32.5c7.4,17.9,11.7,23,11.7,30.3
		s-9.1,15.3-22.6,15.7c-32.9,1-69.2-46.9-115.5-46.9c-12,0-35.6,16.5-35.6,36.4c0,13.4,4.2,52.1,4.2,61.3c0,3.7-2.1,6.2-6.1,7.8"/>
	<path class="st9" d="M3887.8,957.8c7.4-1,14.8-1.6,22.1-1.6c35.8,0,64.7,24.1,64.7,51.2c0,27.1-20.1,80.4-33.6,93.2
		c17.9-8,23-11,35.4-11c26.2,0,31.1,27.8,31.1,48.6c0,36.5-30.8,68.7-51.3,75.9"/>
	<path class="st9" d="M3664.1,1063.7c23.6-49.5,51.1-75.6,63.9-75.6c24.6,0,16.7,26,15.7,34.3c9-9.2,44.4-33,86.9-49.4"/>
	<path class="st9" d="M3624.1,1240.3c1.7-49.8,10-92.9,21.3-128.6"/>
	<path class="st6" d="M3699.1,1386.1c-3.1,0.5-6.2,0.8-9.4,0.8c-32.5,0-58.9-26.3-58.9-58.9c0-32.5,26.3-58.9,58.9-58.9
		c22.6,0,42.2,12.8,52.2,31.4"/>
	<path class="st9" d="M3692.4,1380.5c-3.1,0.5-6.2,0.8-9.4,0.8c-32.5,0-58.9-26.3-58.9-58.9c0-32.5,26.3-58.9,58.9-58.9
		c22.6,0,42.2,12.8,52.2,31.4"/>
	<path class="st6" d="M6045,1997.4c-43.1,22.1-125.9,35-230.5,38.7c2.9,61.5,17,255.3,24.5,361.7c-16.3,23.7-40.1,54.8-59.1,79
		h178.4c27.9-45,66.5-109.4,72.2-124.7C6039.1,2328.4,6041.6,2099.8,6045,1997.4z"/>
	<path class="st9" d="M6036.3,1977.6c-0.8,28.1-8.7,347.5-15.5,367.2c-6.8,19.8-61.3,110.4-78.8,133.8"/>
	<path class="st8" d="M5855.3,1622.7c144.8-31.7,244.1,320.2,222.9,349.7c-21.2,29.6-282,72.5-305.3,51.3
		C5749.6,2002.6,5734.1,1649.2,5855.3,1622.7z"/>
	<path class="st9" d="M5891.5,2009.2c-62.9,9.3-120.9,12.6-131.4,3.2c-13.7-12.5-24.6-139.2-6.9-247.2"/>
	<path class="st9" d="M5866.2,1609.6c131.6,8.4,219.2,323.6,199.2,351.6c-5.9,8.1-29.8,17.3-62,25.9"/>
	<path class="st12" d="M3139.4,2494.3"/>
	<path class="st13" d="M5886.1,1306.2c37.1-36.8,57.3-116.9,57.3-160.7c0-90.1-52.9-127-62.9-127c-9.9,0-20.3,20.8-18.7,35.3
		c-8.9-12.5-87.4-89.2-228.8-89.2c-39.2,0-67.3,19-67.3,50.2c0,14.3,6.6,36.3,17.9,44c-11.6,0.9-28.1,9.2-28.1,32.2
		c0,26.3,35.3,38.8,49.3,38.8s34.8-14.6,44.8-28.2c3.1,15-6.4,39.6,26.5,39.8c13.8,0.1,72.1-29.4,83-39.3
		c-11,19.1-26.3,27.8-26.3,49.3c0,20.2,9.8,34.2,25.1,34.2c15.3,0,59.2-20.7,67.3-30.1c1.7,13.7-13.5,109-8.9,135.1
		c15.3,1.1,34.1-18.3,34.3-2.3"/>
	<path class="st9" d="M5717.6,1109.5c14.3-7.4,27.1-14.9,31.7-19c-11,19.1-26.3,27.8-26.3,49.3c0,20.2,9.8,34.2,25.1,34.2
		c15.3,0,59.2-20.7,67.3-30.1c1.7,13.7-13.5,109-8.9,135.1c15.3,1.1,34.1-18.3,34.3-2.3"/>
	<path class="st9" d="M5664.6,955.3c-13.3-1.5-27.2-2.3-41.8-2.3c-39.2,0-67.3,19-67.3,50.2c0,14.2,6.6,36.3,17.9,43.9
		c-11.6,0.9-28.1,9.2-28.1,32.2c0,26.3,35.3,38.8,49.3,38.8s34.8-14.6,44.8-28.2c2.9,13.7-4.8,35.6,19.1,39.3"/>
	<path class="st9" d="M5928.2,1179.4c3.3-17,5-32.9,5-45.6c0-90.1-52.9-127-62.9-127c-9.9,0-20.3,20.8-18.7,35.3
		c-6-8.3-43.5-45.7-110.2-69.3"/>
	<path class="st9" d="M5876,1294.5c12.8-12.7,23.6-30.5,32.3-50.4"/>
	<path class="st9" d="M5831.2,1279.5c4.1-1.6,8.6-2.3,13.3-2.3c21.2,0,38.5,17.3,38.5,38.5s-17.3,38.5-38.5,38.5
		c-16.9,0-31.3-10.9-36.4-26.1"/>
	<path class="st9" d="M3063,2478.6h3189.2"/>
</g>
<g id="Layer_2">
	<g transform="matrix(1.02109,0,0,1.02109,1033.43,682.717)">
		<path class="st2" d="M4779.5,531.5c26.7,347.5,129.3,668.7,19.6,876c-109.7,206.9-432.2,299.9-806.8,400.9
			c-375.4,101.4-803,209.8-1128.4,58c-325.4-152.7-547.7-566.1-473.9-901c73.8-335.4,444.3-591.1,715-873.9
			c270.3-282.8,441.3-591.5,715.4-705.4c274.5-113.5,652.8-31.7,817.6,196.5C4801.6-189.7,4752.8,184,4779.5,531.5"/>
	</g>
	<g transform="matrix(1.02109,0,0,1.02109,1001.49,283.631)">
		<path class="st14" d="M4720.4,285.6c5-17.9,7.5-36.7,7.5-56.3c0-115.5-93.4-209-209-209c-115.1,0.4-208.6,93.9-208.6,209
			c0,19.6,2.9,38.4,7.5,56.3H4720.4z"/>
	</g>
	<g transform="matrix(1.02109,0,0,1.02109,619.159,634.838)">
		<path class="st15" d="M4012.6,1053.2c0,27.1-23.8,123.5-129.7,123.5c-96.4,0-341.2-415.1-349.2-430.9
			c-25.4-2.5-69.7-35.5-82.6-80.1c-2.1-6.7,27.1-46.3,58.8-36.7c7.5,2.1-24.6-37.5-28.8-44.6c-10-15.9-4.2-37.1,0.8-37.1
			c5,0,68.4,86.3,73.4,86.8c4.6,0.4,42.1,17.5,43.8,20.9c2.1,3.3-0.4,55.5,7.1,65.1c7.1,9.6,255.3,274.1,255.3,274.1
			c2.1-25.4,27.5-95.1,31.7-102.2C3897.9,885.1,4012.6,973.1,4012.6,1053.2"/>
	</g>
	<g transform="matrix(1.02109,0,0,1.02109,435.005,732.846)">
		<path class="st16" d="M3671.7,547.1c-5.4-7.1-8.8-29.2,8.3-29.6c58,0,88,17.9,88,26.7c0,8.8,0,54.2,4.6,62.6
			c1.7,2.5,26.3,29.6,59.2,65.9c15,17.1,40,43.4,40,43.4c67.6,73.4,146.4,157.7,153.5,165.6c2.5-15.4,19.6-71.3,27.9-88.9"/>
	</g>
	<g transform="matrix(-0.563687,-0.8514,-0.8514,0.563687,502.468,650.371)">
		<path class="st16" d="M-2951.1-2633.4c148.5,10,327.9,0.4,350.8,0"/>
	</g>
	<g transform="matrix(1.02109,0,0,1.02109,607.026,807.635)">
		<path class="st16" d="M3989.9,922.4c-5.8,15.4-33,68-116,68c-15.4,0-35-11.3-56.7-30.5"/>
	</g>
	<g transform="matrix(1.02109,0,0,1.02109,639.924,530.18)">
		<path class="st17" d="M4050.8,574.2c-6.3-34.6-32.1-106.4-32.1-168.9c0-94.3,58-147.7,167.7-147.7c77.2,0,107.6,50.5,119.3,75.5
			c9.6,20.9,3.8,43.8,15,65.5c43.4,86.3,79.3,77.6,142.7,184.4c15.4,25.9,24.2,116.4,19.2,145.2c-27.1,1.3-63.4,13.8-63.4,13.8
			c-14.6,15.4-21.3,35.9-20.4,51.7c-12.5-10.4-78.8-64.2-155.6-64.2c-20.4,0-118.5,17.9-144.3,37.1c-4.6-6.3-25.4-17.5-33.4-17.5
			c-14.6,1.7-26.3,2.9-37.5,7.1c-12.9-43.8,24.6-102.2,24.6-170.6C4052,582.5,4051.6,578.8,4050.8,574.2"/>
	</g>
	<g transform="matrix(1.02109,0,0,1.02109,646.448,745.953)">
		<path class="st18" d="M4063.1,541.1c-158.5,0-212.3,216.1-212.3,237.8c0,21.7,121.8,97.6,138.9,97.6
			c17.1,0,119.3-251.5,119.3-267.8C4108.6,591.9,4094.4,541.1,4063.1,541.1"/>
	</g>
	<g transform="matrix(1.02109,0,0,1.02109,607.025,729.352)">
		<path class="st16" d="M3989.9,570.4c-86.3,60.1-117.6,190.6-117.6,207.7c0,21.7,121.8,97.6,138.9,97.6
			c17.1,0,119.3-251.5,119.3-267.8c0-16.3-14.2-67.6-45.5-67.6"/>
	</g>
	<g transform="matrix(1.02109,0,0,1.02109,701.745,952.011)">
		<path class="st18" d="M4165.2,320.1c386.7-25.4,332.5,800.1,302.8,832.6c-29.6,32.5-364.6,130.6-404.6,109.3
			C4023.4,1241.1,3670.5,353,4165.2,320.1"/>
	</g>
	<g transform="matrix(1.02109,0,0,1.02109,721.528,579.855)">
		<path class="st15" d="M4202,511.6c0,0-6.3,38.4-6.7,50.5c-1.7,20,7.1,142.7,10,163.9c-12.1,13.3-99.3,25.9-109.3,18.4
			c0-16.7-8.3-103.9-11.7-116c-65.5-8.3-116.8-87.2-116.8-182.7c0-20,2.1-39.2,6.3-57.1c19.6-6.3,48.4-37.1,52.6-48.8l-4.6-11.3
			c18.4,59.7,130.6,114.7,171.9,119.3l-4.6,7.1c5.8-11.7,16.3-19.6,27.9-19.6c18.4,0,33,18.4,33,40.9c0,22.5-14.6,40.9-33,40.9
			c-8.8,0-17.1-4.2-22.9-11.3"/>
	</g>
	<g transform="matrix(1.02109,0,0,1.02109,651.469,510.148)">
		<path class="st16" d="M4072.5,644.2c-31.3-33.4-51.7-86.8-51.7-147.3c0-20,2.1-39.2,6.3-57.1"/>
	</g>
	<g transform="matrix(1.02109,0,0,1.02109,703.994,595.144)">
		<path class="st16" d="M4169.7,565.7c-20.4,20-45.5,31.7-71.7,31.7c-11.7,0-22.9-2.1-33.4-6.3"/>
	</g>
	<g transform="matrix(1.02109,0,0,1.02109,711.531,549.016)">
		<path class="st16" d="M4183.5,468.7c5.8-11.7,16.3-19.6,27.9-19.6c18.4,0,33,18.4,33,40.9s-14.6,40.9-33,40.9
			c-8.8,0-17.1-4.2-22.9-11.3"/>
	</g>
	<g transform="matrix(0.940742,0.397027,0.397027,-0.940742,682.774,510.543)">
		<path class="st16" d="M3972.6,1179.4c42.5-7.1,85.5-5.8,106,0"/>
	</g>
	<g transform="matrix(0.574363,0.844235,0.844235,-0.574363,661.366,488.05)">
		<path class="st16" d="M2618.9,3135.3c15.4-4.6,34.2-4.2,54.2,0"/>
	</g>
	<g transform="matrix(-0.750334,0.692549,0.692549,0.750334,643.75,514.18)">
		<path class="st16" d="M-2740.9,3056.8c10.8,5.4,53,8.8,71.7,0"/>
	</g>
	<g transform="matrix(1.02109,0,0,1.02109,736.871,612.409)">
		<path class="st16" d="M4230.5,337.8c34.6,49.6,68.4,58.8,121,147.7c15.4,25.9,24.6,115.5,19.6,143.9"/>
	</g>
	<g transform="matrix(1.02109,0,0,1.02109,680.031,486.134)">
		<path class="st16" d="M4125.3,283.4c1.7,0,3.3,0,5,0c77.2,0,107.6,50.5,119.3,75.5c5.4,11.7,6.3,24.2,7.5,36.3"/>
	</g>
	<g transform="matrix(1.02109,0,0,1.02109,625.758,452.201)">
		<path class="st16" d="M4024.7,815.5c-12.9-43.8,24.6-102.2,24.6-170.6c0-27.1-33.4-109.7-33.4-180.6c0-64.2,27.1-109.3,78.8-131.8
			"/>
	</g>
	<g transform="matrix(-0.0381864,-1.02038,-1.02038,0.0381864,726.461,583.037)">
		<path class="st16" d="M-769.1-4151.6c32.1,0.8,62.2,0.8,71.3,0"/>
	</g>
	<g transform="matrix(1.02109,0,0,1.02109,699.359,610.931)">
		<path class="st16" d="M4161.1,694.8c22.9-3.8,44.6-10,50.5-16.3c-1.3-7.5-2.9-27.9-4.6-52.1"/>
	</g>
	<g transform="matrix(0.102636,1.01592,1.01592,-0.102636,696.702,611.204)">
		<path class="st16" d="M989.4,4014.2c12.5,2.1,99.7,1.7,116.4,0"/>
	</g>
	<g transform="matrix(0.88222,-0.514113,-0.514113,-0.88222,639.695,655.395)">
		<path class="st16" d="M3132.1-2612.4c46.7,16.7,98.9,18.8,156.4,0"/>
	</g>
	<g transform="matrix(0.0786088,-1.01806,-1.01806,-0.0786088,650.847,727.204)">
		<path class="st16" d="M-645.4-4002.8c88.9,15.4,176.9,18.8,251.1,0"/>
	</g>
	<g transform="matrix(1.02109,0,0,1.02109,809.465,915.483)">
		<path class="st16" d="M4364.6,1036.7c-3.8,75.1-12.1,127.2-19.2,134.7c-29.6,32.5-364.6,130.6-404.6,109.3
			c-16.7-8.8-88.4-169.8-129.7-356.2"/>
	</g>
	<g transform="matrix(0.154218,1.00938,1.00938,-0.154218,861.659,739.612)">
		<path class="st16" d="M1373.9,4099.6c116,21.3,251.1,15,364.2,0"/>
	</g>
	<g transform="matrix(0.911256,0.460693,0.460693,-0.911256,722.471,607.968)">
		<path class="st16" d="M4025,1314.3c42.1,12.9,84.3,11.7,125.1,0"/>
	</g>
	<g transform="matrix(1.02109,0,0,1.02109,670.492,527.71)">
		<path class="st19" d="M4107.4,472.2c0,10-3.8,18.4-8.8,18.4s-8.8-8.3-8.8-18.4s3.8-18.4,8.8-18.4
			C4103.6,454.3,4107.4,462.2,4107.4,472.2"/>
	</g>
	<g transform="matrix(-0.363293,0.954276,0.954276,0.363293,658.139,550.816)">
		<path class="st16" d="M-1011.8,3972.9c7.9,2.1,41.7,7.9,58.8,0"/>
	</g>
	<g transform="matrix(0.857312,-0.554654,-0.554654,-0.857312,665.964,571.813)">
		<path class="st16" d="M3138-2680.7c4.2-3.8,27.5-10,40.5,0"/>
	</g>
	<g transform="matrix(1.02109,0,0,1.02109,849.741,918.124)">
		<path class="st15" d="M4439.3,671.6c0,0,90.1,259,90.1,287.8c0,29.2-269.5,224-269.5,224l-137.7,11.7l239-245.3l-89.7-223.2
			L4439.3,671.6z"/>
	</g>
	<g transform="matrix(1.02109,0,0,1.02109,784.462,911.287)">
		<path class="st16" d="M4318.7,716.3c5,12.9,89.7,223.2,89.7,223.2l-235.3,242.8"/>
	</g>
	<g transform="matrix(1.02109,0,0,1.02109,868.687,845.596)">
		<path class="st16" d="M4474.3,944.8c11.3,37.5,19.6,65.5,19.6,68.8c0,11.7-43.4,47.1-43.4,47.1"/>
	</g>
	<g transform="matrix(0.309018,0.973208,0.973208,-0.309018,864.303,732.303)">
		<path class="st16" d="M2126.8,3949.7c0,0,46.7,0,103.9,0"/>
	</g>
	<g transform="matrix(1.02109,0,0,1.02109,762.558,741.922)">
		<path class="st18" d="M4278.2,543.6c158.9-45.1,288.2,232.4,273.6,270.3c-14.6,38-199,99.7-230.3,83.8
			C4289.9,881.9,4174.3,572.8,4278.2,543.6"/>
	</g>
	<g transform="matrix(1.02109,0,0,1.02109,784.462,718.156)">
		<path class="st16" d="M4318.7,905.2c-16.3,2.5-29.2,2.5-35.5-0.8c-9.6-5-27.5-38-44.2-81.8"/>
	</g>
	<g transform="matrix(1.02109,0,0,1.02109,851.576,739.563)">
		<path class="st16" d="M4442.9,761.1c5.4,17.9,7.1,31.7,4.6,38.4c-7.5,20-62.6,46.7-117.2,65.1"/>
	</g>
	<g transform="matrix(1.02109,0,0,1.02109,742.458,614.214)">
		<path class="st16" d="M4240.8,772.2c-6.7-59.2,1.3-109.3,40-120.6c88-25,166.4,48.8,216.9,126"/>
	</g>
	<g transform="matrix(1.02109,0,0,1.02109,598.567,1040.1)">
		<path class="st20" d="M3974.5,974.9c159.8,0,745.9,294.9,745.9,313.7c0,18.4,3.3,132.2-17.1,132.2c-622,0-900.6-119.7-900.6-322.5
			C3802.6,1017.5,3886,974.9,3974.5,974.9"/>
	</g>
	<g transform="matrix(1.02109,0,0,1.02109,873.67,1047.51)">
		<path class="st15" d="M4483.5,1286.2c-12.5,0-19.6,114.7-12.1,127.6c21.3,8.3,106,20.9,118.9,20.9c12.5,0,86.3-12.5,86.3-84.7
			C4676.7,1301.6,4602.4,1286.2,4483.5,1286.2"/>
	</g>
	<g transform="matrix(1.02109,0,0,1.02109,660.576,1016.68)">
		<path class="st16" d="M4089.1,1030.7c231.9,84.7,553.6,250.3,553.6,264.1c0,18.4,3.3,132.2-17.1,132.2
			c-622,0-900.6-119.7-900.6-322.5c0-80.9,83.4-123.5,171.9-123.5c12.1,0,26.3,1.7,42.5,4.6"/>
	</g>
	<g transform="matrix(-0.315611,0.97109,0.97109,0.315611,870.784,998.527)">
		<path class="st16" d="M-129,4658.1c1.3-4.2,15.9-3.3,34.6,0"/>
	</g>
	<g transform="matrix(1.02109,0,0,1.02109,863.936,1030.73)">
		<path class="st16" d="M4465.8,1318.8c-5,35-6.3,86.3-1.3,94.7c21.3,8.3,106,20.9,118.9,20.9c12.5,0,86.3-12.5,86.3-84.7
			c0-38-45.9-55.5-123.5-61.3"/>
	</g>
	<g transform="matrix(1.02109,0,0,1.02109,431.626,590.542)">
		<path class="st16" d="M3665.4,586.9c-6.3-7.9-10.4-13.8-11.7-16.7c-4.6-10.8-28.8,11.7-5.8,45.5"/>
	</g>
	<g transform="matrix(-0.687885,-0.754612,-0.754612,0.687885,448.193,596.562)">
		<path class="st16" d="M-2987.3-2303.5c7.1,1.3,36.3,0.8,64.2,0"/>
	</g>
	<g transform="matrix(0.389832,0.943746,0.943746,-0.389832,438.777,621.246)">
		<path class="st16" d="M1968.8,3128.3c-0.8-26.7,56.7-10.8,79.3,0"/>
	</g>
	<g transform="matrix(0.525207,0.875661,0.875661,-0.525207,429.297,624.784)">
		<path class="st16" d="M2419.8,2777.3c9.2-23.4,66.3-7.5,77.6,0"/>
	</g>
	<g transform="matrix(1.02109,0,0,1.02109,894.968,1040.1)">
		<path class="st20" d="M4523,860.7c84.7,0,133.1,84.7,133.1,134.7c0,287-825.5,425.5-845.1,425.5s-42.5-109.3-42.5-117.6
			C3768,1294.9,4345.7,860.7,4523,860.7"/>
	</g>
	<g transform="matrix(0.856701,-0.555598,-0.555598,-0.856701,708.699,976.239)">
		<path class="st16" d="M2764.6-3257.7c117.2,5,267.8,7.5,399.6,0"/>
	</g>
	<g transform="matrix(1.02109,0,0,1.02109,807.048,1016.12)">
		<path class="st16" d="M4360.5,1304.7c-224,82.6-469.7,123.1-480.1,123.1c-19.6,0-42.5-109.3-42.5-117.6c0-1.7,27.1-23.4,70.9-56.3
			"/>
	</g>
	<g transform="matrix(1.02109,0,0,1.02109,830.039,929.248)">
		<path class="st16" d="M4402.7,1007.3c68.4-33.4,127.6-55.1,166.9-55.1c84.7,0,133.1,84.7,133.1,134.7c0,70.1-49.2,131-123.5,183.5
			"/>
	</g>
	<g transform="matrix(1.02109,0,0,1.02109,616.279,1062.69)">
		<path class="st15" d="M4007.4,1287.1c-17.1,0-196.1,30.5-196.1,85.9c0,63.8,38.4,89.7,60.1,89.7s153.5-29.2,165.6-49.2
			C4049.1,1393,4007.4,1287.1,4007.4,1287.1"/>
	</g>
	<g transform="matrix(1.02109,0,0,1.02109,599.49,1002.55)">
		<path class="st16" d="M3976.1,1482.4c29.6-8.8,55.5-18.8,60.5-27.1c12.1-20-29.6-126.4-29.6-126.4c-17.1,0-196.1,30.5-196.1,85.9
			c0,63.8,38.4,89.7,60.1,89.7c4.2,0,12.1-0.8,22.1-2.9"/>
	</g>
	<g transform="matrix(1.02109,0,0,1.02109,993.161,275.303)">
		<path class="st16" d="M4704.9,270.2c5-17.9,7.5-36.7,7.5-56.3c0-115.5-93.4-209-209-209c-115.5,0-208.6,93.9-208.6,209
			c0,19.6,2.9,38.4,7.5,56.3H4704.9z"/>
	</g>
	<g transform="matrix(-1.02109,0,0,1.02109,2158.17,828.964)">
		<polygon class="st21" points="-4035.1,1558.9 -3757.7,1558.9 -3757.7,1558.9 		"/>
	</g>
	<g transform="matrix(1.02109,0,0,1.02109,1110.67,236.578)">
		<path class="st21" d="M4922.2,2133.9V-66.6h-533.9V43.1"/>
	</g>
	<g transform="matrix(1.02109,0,0,1.02109,113.156,781.647)">
		<path class="st22" d="M3075.8,70.8l345,871.8l552.3-612.8L3075.8,70.8z"/>
	</g>
	<g transform="matrix(1.02109,0,0,1.02109,306.567,578.236)">
		<path class="st23" d="M3433.8,210.4v258.2h115.6l56.3,97.2l56.3-97.2h115.5V210.4L3433.8,210.4L3433.8,210.4z"/>
	</g>
	<g transform="matrix(1.02109,0,0,1.02109,349.263,496.958)">
		<path class="st24" d="M3513,415.5c0,10-7.9,17.9-17.9,17.9s-17.9-7.9-17.9-17.9c0-10,7.9-17.9,17.9-17.9S3513,405.5,3513,415.5"/>
	</g>
	<g transform="matrix(1.02109,0,0,1.02109,373.629,496.958)">
		<path class="st24" d="M3558.2,415.5c0,10-7.9,17.9-17.9,17.9c-10,0-17.9-7.9-17.9-17.9c0-10,7.9-17.9,17.9-17.9
			C3549.9,397.6,3558.2,405.5,3558.2,415.5"/>
	</g>
	<g transform="matrix(1.02109,0,0,1.02109,397.995,496.958)">
		<path class="st24" d="M3603,415.5c0,10-7.9,17.9-17.9,17.9s-17.9-7.9-17.9-17.9c0-10,7.9-17.9,17.9-17.9S3603,405.5,3603,415.5"/>
	</g>
</g>
</svg>
